<svg width="28" height="28" viewBox="0 0 28 28" fill="none" xmlns="http://www.w3.org/2000/svg">
<path fill-rule="evenodd" clip-rule="evenodd" d="M23.9205 4.06904C21.2883 1.44646 17.7879 0.00146675 14.0584 0C6.37412 0 0.120002 6.22376 0.116922 13.8738C0.115917 16.3191 0.75785 18.7062 1.97783 20.8102L0 28L7.39059 26.0707C9.42688 27.176 11.7195 27.7585 14.0529 27.7595H14.0586H14.0586C21.7422 27.7595 27.9969 21.5349 28 13.8848C28.0014 10.1775 26.5527 6.69155 23.9205 4.06904Z" fill="url(#paint0_linear_668_499)"/>
<path fill-rule="evenodd" clip-rule="evenodd" d="M20.2897 16.67C19.9452 16.5028 18.2517 15.6949 17.9359 15.5835C17.6202 15.4721 17.3906 15.4164 17.161 15.7507C16.9314 16.085 16.2713 16.8371 16.0703 17.06C15.8694 17.2828 15.6685 17.3108 15.324 17.1435C14.9796 16.9765 13.8697 16.6238 12.5541 15.4861C11.5301 14.6007 10.8388 13.5071 10.6378 13.1728C10.4369 12.8385 10.6164 12.6578 10.7889 12.4913C10.9438 12.3418 11.1333 12.1013 11.3055 11.9063C11.4778 11.7113 11.5352 11.572 11.65 11.3492C11.7648 11.1263 11.7074 10.9313 11.6213 10.7642C11.5352 10.597 10.8463 8.95339 10.5593 8.28479C10.2797 7.63367 9.99571 7.72177 9.78428 7.71156C9.58357 7.70186 9.35374 7.69981 9.1241 7.69981C8.89446 7.69981 8.52133 7.78341 8.20554 8.11765C7.88982 8.45194 7 9.25988 7 10.9034C7 12.5471 8.23428 14.1349 8.40651 14.3578C8.57874 14.5807 10.8354 17.9536 14.2907 19.4C15.1125 19.7441 15.7542 19.9495 16.2544 20.1035C17.0796 20.3576 17.8305 20.3217 18.424 20.2358C19.0857 20.1399 20.4619 19.4279 20.749 18.6479C21.0359 17.8679 21.0359 17.1993 20.9499 17.06C20.8638 16.9207 20.6341 16.8371 20.2897 16.67Z" fill="white"/>
<defs>
<linearGradient id="paint0_linear_668_499" x1="14" y1="28" x2="14" y2="0" gradientUnits="userSpaceOnUse">
<stop stop-color="#28B43E"/>
<stop offset="1" stop-color="#57D063"/>
</linearGradient>
</defs>
</svg>
