<?xml version="1.0" encoding="utf-8"?>
<!-- Generator: Adobe Illustrator 20.1.0, SVG Export Plug-In . SVG Version: 6.00 Build 0)  -->
<svg version="1.1" id="Layer_1" xmlns="http://www.w3.org/2000/svg" xmlns:xlink="http://www.w3.org/1999/xlink" x="0px" y="0px"
	 width="65px" height="39px" viewBox="0 0 65 39" enable-background="new 0 0 65 39" xml:space="preserve">
<g>
	<polygon fill="#FCB42F" points="45.512,39 46.516,38.974 47.507,38.901 48.478,38.776 49.442,38.605 50.381,38.388 51.306,38.125 
		52.211,37.816 53.097,37.468 53.963,37.073 54.803,36.645 55.617,36.172 56.411,35.665 57.172,35.119 57.907,34.541 58.616,33.929 
		59.292,33.277 59.941,32.6 60.551,31.889 61.129,31.153 61.673,30.39 62.178,29.594 62.651,28.778 63.077,27.936 63.471,27.068 
		63.819,26.18 64.127,25.272 64.39,24.345 64.606,23.404 64.777,22.437 64.902,21.464 64.974,20.47 65,19.464 64.974,18.464 
		64.902,17.477 64.777,16.504 64.606,15.55 64.39,14.609 64.127,13.688 63.819,12.781 63.471,11.899 63.077,11.038 62.651,10.196 
		62.178,9.387 61.673,8.591 61.129,7.828 60.551,7.097 59.941,6.387 59.292,5.71 58.616,5.065 57.907,4.453 57.172,3.874 
		56.411,3.328 55.617,2.822 54.803,2.355 53.963,1.927 53.097,1.533 52.211,1.184 51.306,0.875 50.381,0.612 49.442,0.395 
		48.478,0.224 47.507,0.099 46.516,0.026 45.512,0 44.514,0.026 43.524,0.099 42.552,0.224 41.594,0.395 40.656,0.612 39.731,0.875 
		38.832,1.184 37.946,1.533 37.086,1.927 36.253,2.355 35.44,2.822 34.652,3.328 33.891,3.874 33.156,4.453 32.454,5.065 
		31.778,5.71 31.135,6.387 30.525,7.097 29.947,7.828 29.41,8.591 28.904,9.387 28.438,10.196 28.005,11.038 27.618,11.899 
		27.27,12.781 26.969,13.688 26.706,14.609 26.489,15.55 26.319,16.504 26.194,17.477 26.122,18.464 26.096,19.464 26.122,20.47 
		26.194,21.464 26.319,22.437 26.489,23.404 26.706,24.345 26.969,25.272 27.27,26.18 27.618,27.068 28.005,27.936 28.438,28.778 
		28.904,29.594 29.41,30.39 29.947,31.153 30.525,31.889 31.135,32.6 31.778,33.277 32.454,33.929 33.156,34.541 33.891,35.119 
		34.652,35.665 35.44,36.172 36.253,36.645 37.086,37.073 37.946,37.468 38.832,37.816 39.731,38.125 40.656,38.388 41.594,38.605 
		42.552,38.776 43.524,38.901 44.514,38.974 45.512,39 	"/>
	<polygon fill="#EC2030" points="19.488,39 20.485,38.974 21.476,38.901 22.447,38.776 23.405,38.605 24.344,38.388 25.269,38.125 
		26.168,37.816 27.054,37.468 27.913,37.073 28.747,36.645 29.56,36.172 30.348,35.665 31.109,35.119 31.844,34.541 32.546,33.929 
		33.222,33.277 33.865,32.6 34.475,31.889 35.053,31.153 35.59,30.39 36.096,29.594 36.562,28.778 36.995,27.936 37.382,27.068 
		37.73,26.18 38.031,25.272 38.294,24.345 38.511,23.404 38.681,22.437 38.806,21.464 38.878,20.47 38.904,19.464 38.878,18.464 
		38.806,17.477 38.681,16.504 38.511,15.55 38.294,14.609 38.031,13.688 37.73,12.781 37.382,11.899 36.995,11.038 36.562,10.196 
		36.096,9.387 35.59,8.591 35.053,7.828 34.475,7.097 33.865,6.387 33.222,5.71 32.546,5.065 31.844,4.453 31.109,3.874 
		30.348,3.328 29.56,2.822 28.747,2.355 27.913,1.927 27.054,1.533 26.168,1.184 25.269,0.875 24.344,0.612 23.405,0.395 
		22.447,0.224 21.476,0.099 20.485,0.026 19.488,0 18.484,0.026 17.493,0.099 16.522,0.224 15.558,0.395 14.619,0.612 13.694,0.875 
		12.789,1.184 11.903,1.533 11.037,1.927 10.196,2.355 9.383,2.822 8.589,3.328 7.828,3.874 7.093,4.453 6.384,5.065 5.708,5.71 
		5.059,6.387 4.449,7.097 3.871,7.828 3.327,8.591 2.821,9.387 2.349,10.196 1.922,11.038 1.529,11.899 1.181,12.781 0.872,13.688 
		0.61,14.609 0.394,15.55 0.223,16.504 0.098,17.477 0.026,18.464 0,19.464 0.026,20.47 0.098,21.464 0.223,22.437 0.394,23.404 
		0.61,24.345 0.872,25.272 1.181,26.18 1.529,27.068 1.922,27.936 2.349,28.778 2.821,29.594 3.327,30.39 3.871,31.153 
		4.449,31.889 5.059,32.6 5.708,33.277 6.384,33.929 7.093,34.541 7.828,35.119 8.589,35.665 9.383,36.172 10.196,36.645 
		11.037,37.073 11.903,37.468 12.789,37.816 13.694,38.125 14.619,38.388 15.558,38.605 16.522,38.776 17.493,38.901 18.484,38.974 
		19.488,39 	"/>
	<polygon fill="#FCB42F" points="30.223,7.479 40.558,7.479 40.558,6.42 31.115,6.42 30.223,7.479 	"/>
	<polygon fill="#FCB42F" points="28.674,9.834 40.558,9.834 40.558,8.775 29.298,8.775 28.674,9.834 	"/>
	<polygon fill="#FCB42F" points="27.52,12.182 40.558,12.182 40.558,11.123 27.979,11.123 27.52,12.182 	"/>
	<polygon fill="#FCB42F" points="26.726,14.537 40.558,14.537 40.558,13.478 27.054,13.478 26.726,14.537 	"/>
	<polygon fill="#FCB42F" points="27.185,25.917 40.591,25.917 40.591,24.858 26.857,24.858 27.185,25.917 	"/>
	<polygon fill="#FCB42F" points="28.176,28.272 40.591,28.272 40.591,27.213 27.684,27.213 28.176,28.272 	"/>
	<polygon fill="#FCB42F" points="29.567,30.62 40.591,30.62 40.591,29.561 28.904,29.561 29.567,30.62 	"/>
	<polygon fill="#FCB42F" points="31.483,32.975 40.591,32.975 40.591,31.909 30.557,31.909 31.483,32.975 	"/>
	<polygon fill="#FCB42F" points="26.26,16.885 40.558,16.885 40.558,15.826 26.463,15.826 26.26,16.885 	"/>
	<polygon fill="#FCB42F" points="34.974,23.568 40.426,23.568 40.426,22.51 35.17,22.51 34.974,23.568 	"/>
	<polygon fill="#FCB42F" points="35.407,21.22 40.426,21.22 40.426,20.154 35.604,20.154 35.407,21.22 	"/>
	<polygon fill="#FCB42F" points="25.899,20.154 27.316,20.154 27.316,21.22 25.964,21.22 25.899,20.154 	"/>
	<polygon fill="#FFFFFF" points="23.254,18.872 23.163,18.865 23.071,18.852 22.986,18.839 22.9,18.826 22.822,18.813 22.736,18.8 
		22.651,18.786 22.559,18.773 22.467,18.76 22.362,18.754 22.244,18.747 22.119,18.74 21.981,18.74 21.831,18.747 21.66,18.76 
		21.47,18.773 21.338,18.793 21.214,18.813 21.102,18.852 21.004,18.892 20.912,18.938 20.827,18.99 20.761,19.056 20.702,19.115 
		20.663,19.188 20.63,19.26 20.617,19.339 20.617,19.418 20.637,19.503 20.663,19.589 20.715,19.674 20.781,19.76 20.912,19.885 
		21.069,19.983 21.253,20.069 21.45,20.142 21.66,20.207 21.877,20.279 22.093,20.359 22.303,20.444 22.5,20.556 22.684,20.694 
		22.848,20.858 22.986,21.062 23.09,21.312 23.156,21.608 23.182,21.963 23.156,22.378 23.11,22.687 23.031,22.957 22.926,23.207 
		22.795,23.424 22.644,23.615 22.474,23.779 22.29,23.924 22.086,24.049 21.877,24.147 21.66,24.233 21.437,24.299 21.207,24.351 
		20.984,24.391 20.768,24.411 20.551,24.424 20.347,24.43 20.066,24.43 19.803,24.424 19.573,24.424 19.357,24.417 19.16,24.411 
		18.983,24.397 18.825,24.384 18.675,24.365 18.537,24.351 18.412,24.325 18.287,24.305 18.176,24.272 18.064,24.246 17.959,24.206 
		17.854,24.167 17.743,24.128 18.038,22.674 18.097,22.687 18.169,22.707 18.261,22.733 18.373,22.759 18.491,22.786 18.622,22.812 
		18.766,22.845 18.924,22.871 19.088,22.898 19.258,22.924 19.435,22.944 19.619,22.963 19.81,22.97 20,22.977 20.19,22.977 
		20.38,22.97 20.571,22.93 20.722,22.878 20.84,22.806 20.931,22.713 20.997,22.621 21.05,22.516 21.083,22.411 21.109,22.312 
		21.122,22.121 21.063,21.957 20.951,21.825 20.787,21.714 20.59,21.615 20.361,21.516 20.105,21.424 19.849,21.319 19.587,21.2 
		19.337,21.062 19.107,20.891 18.898,20.687 18.733,20.437 18.616,20.142 18.556,19.786 18.563,19.365 18.596,19.109 18.642,18.865 
		18.707,18.642 18.786,18.431 18.891,18.234 19.009,18.063 19.147,17.899 19.311,17.754 19.501,17.629 19.711,17.523 19.947,17.425 
		20.21,17.352 20.505,17.293 20.827,17.247 21.181,17.221 21.568,17.214 21.811,17.214 22.034,17.221 22.237,17.227 22.421,17.234 
		22.585,17.247 22.736,17.261 22.867,17.273 22.986,17.287 23.097,17.3 23.189,17.319 23.274,17.333 23.353,17.346 23.418,17.359 
		23.477,17.366 23.537,17.379 23.589,17.385 23.254,18.872 	"/>
	<polyline fill="none" stroke="#FFFFFF" stroke-width="0.216" stroke-miterlimit="2.6131" points="23.254,18.872 23.254,18.872 
		23.163,18.865 23.071,18.852 22.986,18.839 22.9,18.826 22.822,18.813 22.736,18.8 22.651,18.786 22.559,18.773 22.467,18.76 
		22.362,18.754 22.244,18.747 22.119,18.74 21.981,18.74 21.831,18.747 21.66,18.76 21.47,18.773 21.47,18.773 21.338,18.793 
		21.214,18.813 21.102,18.852 21.004,18.892 20.912,18.938 20.827,18.99 20.761,19.056 20.702,19.115 20.663,19.188 20.63,19.26 
		20.617,19.339 20.617,19.418 20.637,19.503 20.663,19.589 20.715,19.674 20.781,19.76 20.781,19.76 20.912,19.885 21.069,19.983 
		21.253,20.069 21.45,20.142 21.66,20.207 21.877,20.279 22.093,20.359 22.303,20.444 22.5,20.556 22.684,20.694 22.848,20.858 
		22.986,21.062 23.09,21.312 23.156,21.608 23.182,21.963 23.156,22.378 23.156,22.378 23.11,22.687 23.031,22.957 22.926,23.207 
		22.795,23.424 22.644,23.615 22.474,23.779 22.29,23.924 22.086,24.049 21.877,24.147 21.66,24.233 21.437,24.299 21.207,24.351 
		20.984,24.391 20.768,24.411 20.551,24.424 20.347,24.43 20.347,24.43 20.066,24.43 19.803,24.424 19.573,24.424 19.357,24.417 
		19.16,24.411 18.983,24.397 18.825,24.384 18.675,24.365 18.537,24.351 18.412,24.325 18.287,24.305 18.176,24.272 18.064,24.246 
		17.959,24.206 17.854,24.167 17.743,24.128 18.038,22.674 18.038,22.674 18.097,22.687 18.169,22.707 18.261,22.733 18.373,22.759 
		18.491,22.786 18.622,22.812 18.766,22.845 18.924,22.871 19.088,22.898 19.258,22.924 19.435,22.944 19.619,22.963 19.81,22.97 
		20,22.977 20.19,22.977 20.38,22.97 20.38,22.97 20.571,22.93 20.722,22.878 20.84,22.806 20.931,22.713 20.997,22.621 
		21.05,22.516 21.083,22.411 21.109,22.312 21.109,22.312 21.122,22.121 21.063,21.957 20.951,21.825 20.787,21.714 20.59,21.615 
		20.361,21.516 20.105,21.424 19.849,21.319 19.587,21.2 19.337,21.062 19.107,20.891 18.898,20.687 18.733,20.437 18.616,20.142 
		18.556,19.786 18.563,19.365 18.563,19.365 18.596,19.109 18.642,18.865 18.707,18.642 18.786,18.431 18.891,18.234 19.009,18.063 
		19.147,17.899 19.311,17.754 19.501,17.629 19.711,17.523 19.947,17.425 20.21,17.352 20.505,17.293 20.827,17.247 21.181,17.221 
		21.568,17.214 21.568,17.214 21.811,17.214 22.034,17.221 22.237,17.227 22.421,17.234 22.585,17.247 22.736,17.261 22.867,17.273 
		22.986,17.287 23.097,17.3 23.189,17.319 23.274,17.333 23.353,17.346 23.418,17.359 23.477,17.366 23.537,17.379 23.589,17.385 
		23.254,18.872 	"/>
	<polygon fill="#FFFFFF" points="24.81,15.76 26.627,15.76 26.358,17.352 27.454,17.352 27.218,18.839 26.063,18.806 25.433,22.476 
		25.426,22.608 25.459,22.72 25.525,22.806 25.61,22.878 25.728,22.924 25.859,22.963 26.004,22.99 26.161,23.003 26.306,22.996 
		26.437,22.983 26.555,22.963 26.66,22.937 26.745,22.911 26.805,22.891 26.844,22.878 26.857,22.871 26.627,24.095 26.581,24.128 
		26.535,24.154 26.489,24.18 26.444,24.206 26.398,24.226 26.345,24.246 26.286,24.266 26.227,24.285 26.161,24.305 26.096,24.318 
		26.017,24.331 25.938,24.345 25.853,24.358 25.755,24.371 25.65,24.384 25.538,24.397 25.039,24.397 24.777,24.377 24.547,24.351 
		24.337,24.312 24.16,24.266 24.009,24.206 23.884,24.141 23.773,24.062 23.688,23.976 23.622,23.884 23.576,23.772 23.543,23.661 
		23.524,23.536 23.517,23.397 23.517,23.253 23.537,23.102 23.556,22.937 24.81,15.76 	"/>
	<polyline fill="none" stroke="#FFFFFF" stroke-width="0.216" stroke-miterlimit="2.6131" points="24.81,15.76 26.627,15.76 
		26.358,17.352 27.454,17.352 27.218,18.839 26.063,18.806 25.433,22.476 25.433,22.476 25.426,22.608 25.459,22.72 25.525,22.806 
		25.61,22.878 25.728,22.924 25.859,22.963 26.004,22.99 26.161,23.003 26.161,23.003 26.306,22.996 26.437,22.983 26.555,22.963 
		26.66,22.937 26.745,22.911 26.805,22.891 26.844,22.878 26.857,22.871 26.627,24.095 26.627,24.095 26.581,24.128 26.535,24.154 
		26.489,24.18 26.444,24.206 26.398,24.226 26.345,24.246 26.286,24.266 26.227,24.285 26.161,24.305 26.096,24.318 26.017,24.331 
		25.938,24.345 25.853,24.358 25.755,24.371 25.65,24.384 25.538,24.397 25.039,24.397 25.039,24.397 24.777,24.377 24.547,24.351 
		24.337,24.312 24.16,24.266 24.009,24.206 23.884,24.141 23.773,24.062 23.688,23.976 23.622,23.884 23.576,23.772 23.543,23.661 
		23.524,23.536 23.517,23.397 23.517,23.253 23.537,23.102 23.556,22.937 24.81,15.76 	"/>
	<polygon fill="#FFFFFF" points="28.904,21.319 28.884,21.431 28.878,21.549 28.891,21.674 28.917,21.799 28.963,21.924 
		29.016,22.043 29.088,22.168 29.167,22.279 29.258,22.391 29.357,22.49 29.462,22.588 29.58,22.667 29.698,22.74 29.829,22.799 
		29.961,22.845 30.092,22.871 30.263,22.898 30.427,22.917 30.597,22.937 30.768,22.95 30.938,22.957 31.115,22.957 31.286,22.95 
		31.463,22.937 31.64,22.911 31.818,22.878 32.001,22.838 32.178,22.779 32.362,22.707 32.552,22.628 32.736,22.523 32.926,22.411 
		32.664,24.029 32.559,24.081 32.454,24.134 32.349,24.174 32.251,24.213 32.152,24.246 32.047,24.279 31.942,24.305 31.831,24.325 
		31.712,24.345 31.581,24.358 31.443,24.371 31.293,24.384 31.122,24.391 30.945,24.391 30.741,24.397 30.525,24.397 30.203,24.391 
		29.875,24.358 29.547,24.312 29.219,24.233 28.897,24.134 28.589,24.009 28.294,23.845 28.018,23.654 27.762,23.43 27.539,23.161 
		27.349,22.858 27.192,22.51 27.08,22.121 27.008,21.681 26.988,21.194 27.021,20.655 27.047,20.444 27.087,20.201 27.139,19.944 
		27.211,19.668 27.31,19.385 27.428,19.102 27.579,18.813 27.762,18.536 27.972,18.273 28.228,18.023 28.517,17.8 28.845,17.603 
		29.226,17.438 29.652,17.319 30.125,17.241 30.656,17.214 30.912,17.221 31.181,17.247 31.45,17.293 31.719,17.359 31.982,17.458 
		32.238,17.576 32.474,17.734 32.69,17.918 32.887,18.142 33.051,18.405 33.182,18.708 33.274,19.056 33.327,19.451 33.333,19.898 
		33.287,20.398 33.189,20.951 33.156,21.352 28.373,21.352 28.674,20.056 31.548,20.056 31.562,19.891 31.555,19.734 31.542,19.589 
		31.516,19.457 31.47,19.332 31.424,19.221 31.358,19.122 31.293,19.03 31.214,18.951 31.129,18.885 31.03,18.826 30.932,18.773 
		30.827,18.734 30.722,18.708 30.61,18.688 30.492,18.675 30.367,18.681 30.249,18.701 30.138,18.727 30.026,18.767 29.915,18.819 
		29.816,18.879 29.718,18.951 29.633,19.03 29.547,19.122 29.468,19.221 29.396,19.326 29.337,19.438 29.278,19.556 29.232,19.688 
		29.193,19.819 29.167,19.957 28.904,21.319 	"/>
	<polyline fill="none" stroke="#FFFFFF" stroke-width="0.216" stroke-miterlimit="2.6131" points="28.904,21.319 28.904,21.319 
		28.884,21.431 28.878,21.549 28.891,21.674 28.917,21.799 28.963,21.924 29.016,22.043 29.088,22.168 29.167,22.279 29.258,22.391 
		29.357,22.49 29.462,22.588 29.58,22.667 29.698,22.74 29.829,22.799 29.961,22.845 30.092,22.871 30.092,22.871 30.263,22.898 
		30.427,22.917 30.597,22.937 30.768,22.95 30.938,22.957 31.115,22.957 31.286,22.95 31.463,22.937 31.64,22.911 31.818,22.878 
		32.001,22.838 32.178,22.779 32.362,22.707 32.552,22.628 32.736,22.523 32.926,22.411 32.664,24.029 32.664,24.029 32.559,24.081 
		32.454,24.134 32.349,24.174 32.251,24.213 32.152,24.246 32.047,24.279 31.942,24.305 31.831,24.325 31.712,24.345 31.581,24.358 
		31.443,24.371 31.293,24.384 31.122,24.391 30.945,24.391 30.741,24.397 30.525,24.397 30.525,24.397 30.203,24.391 29.875,24.358 
		29.547,24.312 29.219,24.233 28.897,24.134 28.589,24.009 28.294,23.845 28.018,23.654 27.762,23.43 27.539,23.161 27.349,22.858 
		27.192,22.51 27.08,22.121 27.008,21.681 26.988,21.194 27.021,20.655 27.021,20.655 27.047,20.444 27.087,20.201 27.139,19.944 
		27.211,19.668 27.31,19.385 27.428,19.102 27.579,18.813 27.762,18.536 27.972,18.273 28.228,18.023 28.517,17.8 28.845,17.603 
		29.226,17.438 29.652,17.319 30.125,17.241 30.656,17.214 30.656,17.214 30.912,17.221 31.181,17.247 31.45,17.293 31.719,17.359 
		31.982,17.458 32.238,17.576 32.474,17.734 32.69,17.918 32.887,18.142 33.051,18.405 33.182,18.708 33.274,19.056 33.327,19.451 
		33.333,19.898 33.287,20.398 33.189,20.951 33.156,21.352 28.373,21.352 28.674,20.056 31.548,20.056 31.548,20.056 31.562,19.891 
		31.555,19.734 31.542,19.589 31.516,19.457 31.47,19.332 31.424,19.221 31.358,19.122 31.293,19.03 31.214,18.951 31.129,18.885 
		31.03,18.826 30.932,18.773 30.827,18.734 30.722,18.708 30.61,18.688 30.492,18.675 30.492,18.675 30.367,18.681 30.249,18.701 
		30.138,18.727 30.026,18.767 29.915,18.819 29.816,18.879 29.718,18.951 29.633,19.03 29.547,19.122 29.468,19.221 29.396,19.326 
		29.337,19.438 29.278,19.556 29.232,19.688 29.193,19.819 29.167,19.957 28.904,21.319 	"/>
	<polygon fill="#FFFFFF" points="44.554,17.747 44.468,17.701 44.383,17.662 44.291,17.615 44.193,17.569 44.095,17.53 
		43.983,17.491 43.872,17.451 43.753,17.412 43.629,17.379 43.504,17.352 43.366,17.326 43.228,17.306 43.077,17.293 42.926,17.28 
		42.769,17.28 42.605,17.28 42.441,17.28 42.27,17.293 42.093,17.313 41.91,17.346 41.726,17.398 41.542,17.471 41.358,17.563 
		41.174,17.681 40.998,17.826 40.827,17.997 40.663,18.208 40.505,18.451 40.361,18.74 40.223,19.069 40.098,19.438 39.993,19.859 
		39.954,20.095 39.928,20.325 39.915,20.556 39.921,20.78 39.941,21.003 39.987,21.214 40.046,21.411 40.118,21.608 40.217,21.786 
		40.335,21.957 40.472,22.108 40.63,22.246 40.807,22.365 41.01,22.463 41.233,22.549 41.483,22.608 41.568,22.628 41.667,22.647 
		41.785,22.661 41.916,22.674 42.06,22.687 42.211,22.687 42.375,22.687 42.539,22.674 42.71,22.654 42.881,22.621 43.045,22.575 
		43.209,22.523 43.373,22.45 43.524,22.365 43.661,22.259 43.793,22.141 43.497,23.897 43.458,23.93 43.419,23.97 43.366,24.016 
		43.307,24.055 43.235,24.108 43.143,24.154 43.038,24.2 42.92,24.24 42.769,24.285 42.599,24.318 42.402,24.345 42.172,24.371 
		41.916,24.384 41.621,24.391 41.286,24.384 40.919,24.365 40.617,24.331 40.315,24.266 40.013,24.167 39.711,24.035 39.423,23.878 
		39.147,23.68 38.884,23.45 38.642,23.187 38.425,22.891 38.241,22.562 38.084,22.194 37.966,21.792 37.887,21.352 37.861,20.885 
		37.874,20.372 37.946,19.826 37.998,19.556 38.058,19.293 38.123,19.036 38.189,18.793 38.261,18.563 38.346,18.333 38.432,18.116 
		38.523,17.911 38.622,17.708 38.72,17.517 38.832,17.333 38.95,17.162 39.068,16.997 39.2,16.839 39.331,16.695 39.468,16.557 
		39.619,16.425 39.77,16.3 39.928,16.188 40.092,16.083 40.269,15.984 40.446,15.899 40.63,15.82 40.82,15.748 41.024,15.682 
		41.227,15.629 41.437,15.583 41.66,15.543 41.883,15.51 42.119,15.484 42.356,15.471 42.605,15.465 42.815,15.471 43.019,15.484 
		43.215,15.504 43.412,15.53 43.596,15.557 43.773,15.596 43.943,15.629 44.101,15.668 44.252,15.708 44.383,15.748 44.508,15.787 
		44.613,15.826 44.705,15.859 44.784,15.885 44.843,15.912 44.882,15.925 44.554,17.747 	"/>
	<polyline fill="none" stroke="#FFFFFF" stroke-width="0.216" stroke-miterlimit="2.6131" points="44.554,17.747 44.554,17.747 
		44.468,17.701 44.383,17.662 44.291,17.615 44.193,17.569 44.095,17.53 43.983,17.491 43.872,17.451 43.753,17.412 43.629,17.379 
		43.504,17.352 43.366,17.326 43.228,17.306 43.077,17.293 42.926,17.28 42.769,17.28 42.605,17.28 42.605,17.28 42.441,17.28 
		42.27,17.293 42.093,17.313 41.91,17.346 41.726,17.398 41.542,17.471 41.358,17.563 41.174,17.681 40.998,17.826 40.827,17.997 
		40.663,18.208 40.505,18.451 40.361,18.74 40.223,19.069 40.098,19.438 39.993,19.859 39.993,19.859 39.954,20.095 39.928,20.325 
		39.915,20.556 39.921,20.78 39.941,21.003 39.987,21.214 40.046,21.411 40.118,21.608 40.217,21.786 40.335,21.957 40.472,22.108 
		40.63,22.246 40.807,22.365 41.01,22.463 41.233,22.549 41.483,22.608 41.483,22.608 41.568,22.628 41.667,22.647 41.785,22.661 
		41.916,22.674 42.06,22.687 42.211,22.687 42.375,22.687 42.539,22.674 42.71,22.654 42.881,22.621 43.045,22.575 43.209,22.523 
		43.373,22.45 43.524,22.365 43.661,22.259 43.793,22.141 43.497,23.897 43.497,23.897 43.458,23.93 43.419,23.97 43.366,24.016 
		43.307,24.055 43.235,24.108 43.143,24.154 43.038,24.2 42.92,24.24 42.769,24.285 42.599,24.318 42.402,24.345 42.172,24.371 
		41.916,24.384 41.621,24.391 41.286,24.384 40.919,24.365 40.919,24.365 40.617,24.331 40.315,24.266 40.013,24.167 39.711,24.035 
		39.423,23.878 39.147,23.68 38.884,23.45 38.642,23.187 38.425,22.891 38.241,22.562 38.084,22.194 37.966,21.792 37.887,21.352 
		37.861,20.885 37.874,20.372 37.946,19.826 37.946,19.826 37.998,19.556 38.058,19.293 38.123,19.036 38.189,18.793 38.261,18.563 
		38.346,18.333 38.432,18.116 38.523,17.911 38.622,17.708 38.72,17.517 38.832,17.333 38.95,17.162 39.068,16.997 39.2,16.839 
		39.331,16.695 39.468,16.557 39.619,16.425 39.77,16.3 39.928,16.188 40.092,16.083 40.269,15.984 40.446,15.899 40.63,15.82 
		40.82,15.748 41.024,15.682 41.227,15.629 41.437,15.583 41.66,15.543 41.883,15.51 42.119,15.484 42.356,15.471 42.605,15.465 
		42.605,15.465 42.815,15.471 43.019,15.484 43.215,15.504 43.412,15.53 43.596,15.557 43.773,15.596 43.943,15.629 44.101,15.668 
		44.252,15.708 44.383,15.748 44.508,15.787 44.613,15.826 44.705,15.859 44.784,15.885 44.843,15.912 44.882,15.925 44.554,17.747 
			"/>
	<polygon fill="#FFFFFF" points="60.709,24.397 58.891,24.397 59.022,23.667 59.022,23.601 58.917,23.733 58.806,23.851 
		58.694,23.957 58.576,24.049 58.458,24.134 58.34,24.206 58.222,24.266 58.097,24.325 57.972,24.371 57.848,24.404 57.723,24.437 
		57.592,24.457 57.461,24.476 57.336,24.489 57.205,24.496 57.074,24.496 56.732,24.47 56.417,24.397 56.129,24.285 55.866,24.134 
		55.63,23.943 55.42,23.72 55.236,23.476 55.079,23.2 54.947,22.904 54.842,22.595 54.771,22.273 54.718,21.937 54.698,21.602 
		54.705,21.26 54.737,20.924 54.797,20.589 54.895,20.201 55.013,19.832 55.151,19.497 55.315,19.181 55.486,18.885 55.683,18.622 
		55.886,18.385 56.103,18.168 56.332,17.977 56.575,17.813 56.824,17.668 57.074,17.556 57.336,17.464 57.598,17.405 57.861,17.366 
		58.13,17.352 58.32,17.359 58.504,17.379 58.675,17.412 58.832,17.458 58.983,17.51 59.114,17.569 59.245,17.642 59.364,17.714 
		59.469,17.793 59.567,17.879 59.652,17.964 59.731,18.05 59.796,18.135 59.856,18.221 59.908,18.3 59.948,18.379 59.948,18.379 
		60.407,15.794 62.192,15.794 60.709,24.397 	"/>
	<polyline fill="none" stroke="#FFFFFF" stroke-width="0.216" stroke-miterlimit="2.6131" points="60.709,24.397 58.891,24.397 
		59.022,23.667 59.022,23.601 59.022,23.601 58.917,23.733 58.806,23.851 58.694,23.957 58.576,24.049 58.458,24.134 58.34,24.206 
		58.222,24.266 58.097,24.325 57.972,24.371 57.848,24.404 57.723,24.437 57.592,24.457 57.461,24.476 57.336,24.489 57.205,24.496 
		57.074,24.496 57.074,24.496 56.732,24.47 56.417,24.397 56.129,24.285 55.866,24.134 55.63,23.943 55.42,23.72 55.236,23.476 
		55.079,23.2 54.947,22.904 54.842,22.595 54.771,22.273 54.718,21.937 54.698,21.602 54.705,21.26 54.737,20.924 54.797,20.589 
		54.797,20.589 54.895,20.201 55.013,19.832 55.151,19.497 55.315,19.181 55.486,18.885 55.683,18.622 55.886,18.385 56.103,18.168 
		56.332,17.977 56.575,17.813 56.824,17.668 57.074,17.556 57.336,17.464 57.598,17.405 57.861,17.366 58.13,17.352 58.13,17.352 
		58.32,17.359 58.504,17.379 58.675,17.412 58.832,17.458 58.983,17.51 59.114,17.569 59.245,17.642 59.364,17.714 59.469,17.793 
		59.567,17.879 59.652,17.964 59.731,18.05 59.796,18.135 59.856,18.221 59.908,18.3 59.948,18.379 59.948,18.379 60.407,15.794 
		62.192,15.794 60.709,24.397 	"/>
	<polygon fill="#FCB42F" points="57.736,22.806 57.92,22.792 58.091,22.753 58.248,22.707 58.399,22.634 58.537,22.556 
		58.668,22.457 58.793,22.345 58.904,22.226 59.003,22.095 59.095,21.95 59.18,21.799 59.252,21.641 59.318,21.477 59.37,21.306 
		59.416,21.128 59.449,20.951 59.482,20.766 59.502,20.576 59.502,20.398 59.495,20.214 59.475,20.043 59.449,19.878 59.403,19.72 
		59.35,19.569 59.285,19.438 59.206,19.313 59.121,19.207 59.022,19.115 58.911,19.036 58.793,18.984 58.668,18.951 58.53,18.938 
		58.353,18.951 58.189,18.977 58.038,19.03 57.887,19.096 57.756,19.181 57.625,19.286 57.513,19.398 57.402,19.523 57.303,19.668 
		57.211,19.819 57.126,19.977 57.054,20.148 56.988,20.325 56.936,20.503 56.883,20.694 56.844,20.885 56.811,21.174 56.824,21.49 
		56.87,21.812 56.956,22.121 57.087,22.391 57.257,22.608 57.474,22.753 57.736,22.806 	"/>
	<polygon fill="#FFFFFF" points="17.441,22.937 17.179,24.397 15.525,24.397 15.571,24.128 15.604,23.884 15.63,23.7 15.656,23.601 
		15.564,23.707 15.459,23.812 15.335,23.91 15.197,24.003 15.039,24.095 14.875,24.174 14.704,24.252 14.528,24.318 14.337,24.377 
		14.147,24.424 13.956,24.463 13.76,24.489 13.569,24.502 13.379,24.509 13.196,24.489 13.018,24.463 12.789,24.404 12.578,24.338 
		12.395,24.252 12.231,24.154 12.087,24.049 11.955,23.93 11.85,23.805 11.758,23.674 11.68,23.536 11.614,23.391 11.562,23.246 
		11.522,23.102 11.496,22.95 11.476,22.799 11.463,22.654 11.463,22.51 11.483,22.253 11.522,22.009 11.588,21.779 11.673,21.556 
		11.778,21.345 11.896,21.154 12.034,20.97 12.191,20.806 12.355,20.655 12.539,20.516 12.73,20.391 12.926,20.286 13.136,20.194 
		13.353,20.122 13.576,20.062 13.806,20.023 13.819,20.023 13.851,20.017 13.898,20.01 13.97,20.003 14.048,19.99 14.14,19.983 
		14.239,19.971 14.35,19.957 14.462,19.944 14.573,19.931 14.692,19.924 14.797,19.911 14.901,19.905 15,19.898 15.092,19.891 
		15.164,19.891 15.315,19.891 15.472,19.898 15.617,19.905 15.761,19.905 15.879,19.911 15.971,19.918 16.037,19.924 16.056,19.924 
		16.07,19.878 16.109,19.76 16.141,19.622 16.155,19.497 16.129,19.352 16.07,19.221 15.991,19.102 15.886,19.003 15.761,18.918 
		15.623,18.859 15.466,18.819 15.295,18.806 15.111,18.8 14.915,18.793 14.711,18.793 14.501,18.8 14.285,18.813 14.075,18.832 
		13.865,18.852 13.661,18.879 13.464,18.905 13.274,18.938 13.103,18.971 12.946,19.003 12.802,19.043 12.683,19.082 12.592,19.128 
		12.519,19.168 12.985,17.583 13.13,17.523 13.274,17.471 13.431,17.425 13.589,17.392 13.747,17.359 13.917,17.333 14.088,17.306 
		14.265,17.293 14.449,17.28 14.639,17.273 14.836,17.267 15.039,17.267 15.249,17.267 15.466,17.267 15.695,17.273 15.925,17.28 
		16.109,17.293 16.306,17.326 16.509,17.372 16.719,17.432 16.922,17.51 17.119,17.603 17.316,17.714 17.5,17.839 17.664,17.984 
		17.808,18.142 17.939,18.319 18.038,18.517 18.103,18.727 18.143,18.951 18.143,19.201 18.103,19.464 17.441,22.937 	"/>
	<polyline fill="none" stroke="#FFFFFF" stroke-width="0.216" stroke-miterlimit="2.6131" points="17.441,22.937 17.179,24.397 
		15.525,24.397 15.525,24.397 15.571,24.128 15.604,23.884 15.63,23.7 15.656,23.601 15.656,23.601 15.564,23.707 15.459,23.812 
		15.335,23.91 15.197,24.003 15.039,24.095 14.875,24.174 14.704,24.252 14.528,24.318 14.337,24.377 14.147,24.424 13.956,24.463 
		13.76,24.489 13.569,24.502 13.379,24.509 13.196,24.489 13.018,24.463 13.018,24.463 12.789,24.404 12.578,24.338 12.395,24.252 
		12.231,24.154 12.087,24.049 11.955,23.93 11.85,23.805 11.758,23.674 11.68,23.536 11.614,23.391 11.562,23.246 11.522,23.102 
		11.496,22.95 11.476,22.799 11.463,22.654 11.463,22.51 11.463,22.51 11.483,22.253 11.522,22.009 11.588,21.779 11.673,21.556 
		11.778,21.345 11.896,21.154 12.034,20.97 12.191,20.806 12.355,20.655 12.539,20.516 12.73,20.391 12.926,20.286 13.136,20.194 
		13.353,20.122 13.576,20.062 13.806,20.023 13.806,20.023 13.819,20.023 13.851,20.017 13.898,20.01 13.97,20.003 14.048,19.99 
		14.14,19.983 14.239,19.971 14.35,19.957 14.462,19.944 14.573,19.931 14.692,19.924 14.797,19.911 14.901,19.905 15,19.898 
		15.092,19.891 15.164,19.891 15.164,19.891 15.315,19.891 15.472,19.898 15.617,19.905 15.761,19.905 15.879,19.911 15.971,19.918 
		16.037,19.924 16.056,19.924 16.056,19.924 16.07,19.878 16.109,19.76 16.141,19.622 16.155,19.497 16.155,19.497 16.129,19.352 
		16.07,19.221 15.991,19.102 15.886,19.003 15.761,18.918 15.623,18.859 15.466,18.819 15.295,18.806 15.295,18.806 15.111,18.8 
		14.915,18.793 14.711,18.793 14.501,18.8 14.285,18.813 14.075,18.832 13.865,18.852 13.661,18.879 13.464,18.905 13.274,18.938 
		13.103,18.971 12.946,19.003 12.802,19.043 12.683,19.082 12.592,19.128 12.519,19.168 12.985,17.583 12.985,17.583 13.13,17.523 
		13.274,17.471 13.431,17.425 13.589,17.392 13.747,17.359 13.917,17.333 14.088,17.306 14.265,17.293 14.449,17.28 14.639,17.273 
		14.836,17.267 15.039,17.267 15.249,17.267 15.466,17.267 15.695,17.273 15.925,17.28 15.925,17.28 16.109,17.293 16.306,17.326 
		16.509,17.372 16.719,17.432 16.922,17.51 17.119,17.603 17.316,17.714 17.5,17.839 17.664,17.984 17.808,18.142 17.939,18.319 
		18.038,18.517 18.103,18.727 18.143,18.951 18.143,19.201 18.103,19.464 17.441,22.937 	"/>
	<polygon fill="#EC2030" points="15.859,21.22 15.853,21.187 15.827,21.154 15.787,21.135 15.722,21.122 15.649,21.108 
		15.564,21.102 15.466,21.102 15.367,21.102 15.262,21.108 15.151,21.122 15.046,21.135 14.941,21.148 14.842,21.161 14.751,21.181 
		14.672,21.2 14.6,21.22 14.554,21.233 14.501,21.253 14.429,21.279 14.357,21.312 14.272,21.352 14.186,21.398 14.094,21.444 
		14.009,21.496 13.917,21.562 13.832,21.628 13.753,21.707 13.681,21.786 13.615,21.871 13.569,21.963 13.53,22.069 13.51,22.174 
		13.504,22.398 13.537,22.575 13.602,22.707 13.688,22.806 13.786,22.871 13.898,22.911 14.003,22.93 14.108,22.937 14.304,22.93 
		14.481,22.911 14.652,22.884 14.803,22.845 14.934,22.799 15.059,22.74 15.17,22.681 15.269,22.608 15.354,22.542 15.433,22.463 
		15.499,22.391 15.551,22.312 15.597,22.233 15.636,22.154 15.669,22.082 15.689,22.009 15.741,21.819 15.787,21.602 15.827,21.391 
		15.859,21.22 	"/>
	<polygon fill="#FFFFFF" points="3.635,24.397 1.85,24.397 3.34,15.76 6.444,15.76 6.738,20.885 8.884,15.76 12.126,15.76 
		10.603,24.397 8.819,24.397 9.947,17.945 9.875,17.945 7.205,24.397 5.19,24.397 5.177,24.128 5.131,23.411 5.072,22.391 
		5.007,21.22 4.941,20.043 4.882,19.01 4.836,18.26 4.823,17.945 4.803,17.945 4.764,17.945 4.724,17.945 4.724,17.945 
		3.635,24.397 	"/>
	<polyline fill="none" stroke="#FFFFFF" stroke-width="0.216" stroke-miterlimit="2.6131" points="3.635,24.397 1.85,24.397 
		3.34,15.76 6.444,15.76 6.738,20.885 8.884,15.76 12.126,15.76 10.603,24.397 8.819,24.397 9.947,17.945 9.875,17.945 
		7.205,24.397 5.19,24.397 5.19,24.397 5.177,24.128 5.131,23.411 5.072,22.391 5.007,21.22 4.941,20.043 4.882,19.01 4.836,18.26 
		4.823,17.945 4.823,17.945 4.803,17.945 4.764,17.945 4.724,17.945 4.724,17.945 3.635,24.397 	"/>
	<polygon fill="#FFFFFF" points="50.007,22.937 49.738,24.397 48.091,24.397 48.104,24.128 48.111,23.891 48.111,23.713 
		48.123,23.634 48.038,23.733 47.94,23.832 47.821,23.924 47.691,24.016 47.553,24.101 47.395,24.18 47.231,24.259 47.067,24.325 
		46.89,24.377 46.706,24.43 46.522,24.463 46.339,24.489 46.148,24.502 45.964,24.509 45.787,24.489 45.61,24.463 45.374,24.404 
		45.164,24.338 44.98,24.252 44.81,24.154 44.665,24.049 44.541,23.93 44.436,23.805 44.344,23.674 44.265,23.536 44.206,23.391 
		44.154,23.246 44.121,23.102 44.095,22.95 44.075,22.799 44.062,22.654 44.062,22.51 44.075,22.253 44.114,22.009 44.173,21.779 
		44.259,21.556 44.357,21.345 44.482,21.154 44.62,20.97 44.77,20.806 44.941,20.655 45.118,20.516 45.308,20.391 45.512,20.286 
		45.715,20.194 45.932,20.122 46.148,20.062 46.371,20.023 46.384,20.023 46.417,20.017 46.463,20.01 46.529,20.003 46.614,19.99 
		46.706,19.983 46.805,19.971 46.909,19.957 47.021,19.944 47.139,19.931 47.251,19.924 47.362,19.911 47.467,19.905 47.559,19.898 
		47.651,19.891 47.723,19.891 47.881,19.891 48.038,19.898 48.189,19.905 48.333,19.905 48.458,19.911 48.563,19.918 48.622,19.924 
		48.648,19.924 48.662,19.878 48.681,19.76 48.701,19.622 48.714,19.497 48.688,19.352 48.635,19.221 48.55,19.102 48.451,19.003 
		48.333,18.918 48.196,18.859 48.051,18.819 47.894,18.806 47.71,18.8 47.513,18.793 47.31,18.793 47.1,18.8 46.883,18.813 
		46.673,18.832 46.463,18.852 46.26,18.879 46.063,18.905 45.873,18.938 45.702,18.971 45.545,19.003 45.4,19.043 45.282,19.082 
		45.19,19.128 45.118,19.168 45.577,17.583 45.722,17.523 45.873,17.471 46.024,17.425 46.181,17.392 46.345,17.359 46.509,17.333 
		46.68,17.306 46.857,17.293 47.041,17.28 47.231,17.273 47.421,17.267 47.624,17.267 47.828,17.267 48.038,17.267 48.261,17.273 
		48.484,17.28 48.668,17.293 48.865,17.326 49.068,17.372 49.278,17.432 49.482,17.51 49.685,17.603 49.882,17.714 50.066,17.839 
		50.23,17.984 50.381,18.142 50.512,18.319 50.61,18.517 50.682,18.727 50.728,18.951 50.728,19.201 50.695,19.464 50.007,22.937 	
		"/>
	<polygon fill="#FFFFFF" points="49.738,24.443 49.777,24.404 50.046,22.944 49.967,22.93 49.698,24.391 49.738,24.351 
		49.738,24.443 49.77,24.437 49.777,24.404 49.738,24.443 	"/>
	<polygon fill="#FFFFFF" points="48.051,24.397 48.091,24.443 49.738,24.443 49.738,24.351 48.091,24.351 48.13,24.397 
		48.051,24.397 48.045,24.443 48.091,24.443 48.051,24.397 	"/>
	<polygon fill="#FFFFFF" points="48.156,23.661 48.097,23.608 48.071,23.713 48.064,23.891 48.064,24.128 48.051,24.397 
		48.13,24.397 48.143,24.128 48.156,23.891 48.149,23.713 48.149,23.661 48.091,23.608 48.156,23.661 	"/>
	<polygon fill="#FFFFFF" points="45.604,24.502 45.604,24.502 45.787,24.529 45.964,24.549 46.148,24.542 46.339,24.529 
		46.529,24.502 46.713,24.47 46.896,24.417 47.08,24.365 47.244,24.299 47.415,24.22 47.572,24.141 47.71,24.049 47.848,23.957 
		47.966,23.864 48.071,23.759 48.156,23.661 48.091,23.608 48.005,23.707 47.914,23.799 47.795,23.891 47.671,23.983 47.533,24.062 
		47.375,24.141 47.218,24.22 47.054,24.285 46.883,24.338 46.7,24.391 46.516,24.424 46.339,24.45 46.148,24.463 45.964,24.47 
		45.787,24.45 45.617,24.424 45.617,24.424 45.604,24.502 	"/>
	<polygon fill="#FFFFFF" points="44.016,22.51 44.016,22.51 44.022,22.654 44.035,22.799 44.055,22.957 44.081,23.108 
		44.114,23.253 44.166,23.404 44.226,23.555 44.311,23.693 44.403,23.832 44.508,23.957 44.639,24.081 44.79,24.187 44.961,24.292 
		45.151,24.377 45.368,24.443 45.604,24.502 45.617,24.424 45.38,24.365 45.177,24.299 45,24.213 44.829,24.121 44.691,24.016 
		44.573,23.904 44.468,23.779 44.377,23.654 44.304,23.516 44.245,23.378 44.193,23.24 44.16,23.095 44.134,22.944 44.114,22.799 
		44.101,22.654 44.107,22.51 44.107,22.51 44.016,22.51 	"/>
	<polygon fill="#FFFFFF" points="46.371,19.983 46.371,19.983 46.142,20.023 45.919,20.082 45.702,20.154 45.492,20.247 
		45.289,20.352 45.092,20.484 44.915,20.621 44.744,20.78 44.587,20.944 44.449,21.128 44.318,21.325 44.219,21.542 44.134,21.766 
		44.075,22.003 44.035,22.253 44.016,22.51 44.107,22.51 44.114,22.253 44.154,22.016 44.213,21.792 44.298,21.569 44.396,21.365 
		44.514,21.181 44.652,20.997 44.797,20.832 44.967,20.687 45.144,20.549 45.328,20.431 45.532,20.325 45.728,20.233 45.945,20.161 
		46.155,20.102 46.371,20.062 46.371,20.062 46.371,19.983 	"/>
	<polygon fill="#FFFFFF" points="47.723,19.846 47.723,19.846 47.651,19.846 47.559,19.859 47.467,19.865 47.362,19.872 
		47.251,19.885 47.139,19.891 47.021,19.905 46.909,19.918 46.805,19.931 46.706,19.944 46.614,19.951 46.529,19.964 46.463,19.971 
		46.411,19.977 46.384,19.983 46.371,19.983 46.371,20.062 46.384,20.062 46.424,20.056 46.463,20.049 46.529,20.043 46.614,20.029 
		46.706,20.023 46.805,20.01 46.909,19.997 47.021,19.983 47.139,19.971 47.251,19.964 47.362,19.951 47.467,19.944 47.559,19.937 
		47.651,19.937 47.723,19.937 47.723,19.937 47.723,19.846 	"/>
	<polygon fill="#FFFFFF" points="48.609,19.918 48.648,19.885 48.622,19.885 48.563,19.878 48.458,19.872 48.333,19.859 
		48.189,19.859 48.038,19.859 47.881,19.846 47.723,19.846 47.723,19.937 47.881,19.937 48.038,19.937 48.189,19.951 48.333,19.951 
		48.458,19.951 48.563,19.957 48.622,19.964 48.648,19.964 48.688,19.931 48.648,19.964 48.681,19.971 48.688,19.931 48.609,19.918 
			"/>
	<polygon fill="#FFFFFF" points="48.674,19.497 48.668,19.497 48.662,19.622 48.642,19.753 48.622,19.872 48.609,19.918 
		48.688,19.931 48.701,19.885 48.721,19.766 48.74,19.622 48.76,19.497 48.753,19.497 48.674,19.497 	"/>
	<polygon fill="#FFFFFF" points="47.894,18.846 47.894,18.852 48.045,18.859 48.182,18.898 48.314,18.957 48.425,19.036 
		48.517,19.128 48.596,19.24 48.648,19.359 48.674,19.497 48.753,19.497 48.727,19.345 48.674,19.201 48.583,19.076 48.478,18.971 
		48.353,18.879 48.209,18.819 48.058,18.78 47.894,18.76 47.894,18.767 47.894,18.846 	"/>
	<polygon fill="#FFFFFF" points="45.079,19.161 45.144,19.201 45.21,19.168 45.295,19.122 45.407,19.082 45.551,19.043 
		45.709,19.01 45.879,18.977 46.07,18.944 46.26,18.918 46.463,18.892 46.673,18.872 46.883,18.852 47.1,18.839 47.31,18.839 
		47.513,18.839 47.71,18.839 47.894,18.846 47.894,18.767 47.71,18.76 47.513,18.747 47.31,18.747 47.1,18.76 46.883,18.773 
		46.673,18.793 46.463,18.813 46.26,18.839 46.057,18.865 45.866,18.898 45.696,18.931 45.538,18.964 45.394,19.003 45.269,19.043 
		45.171,19.089 45.092,19.135 45.157,19.174 45.079,19.161 	"/>
	<polygon fill="#FFFFFF" points="45.564,17.543 45.538,17.576 45.079,19.161 45.157,19.174 45.617,17.589 45.591,17.622 
		45.564,17.543 45.545,17.55 45.538,17.576 45.564,17.543 	"/>
	<polygon fill="#FFFFFF" points="48.484,17.241 48.484,17.241 48.261,17.227 48.038,17.221 47.828,17.221 47.624,17.221 
		47.421,17.221 47.231,17.234 47.041,17.241 46.857,17.254 46.68,17.267 46.503,17.293 46.339,17.319 46.175,17.352 46.017,17.385 
		45.86,17.432 45.709,17.484 45.564,17.543 45.591,17.622 45.735,17.563 45.886,17.51 46.03,17.464 46.188,17.432 46.352,17.398 
		46.516,17.372 46.68,17.346 46.857,17.333 47.041,17.319 47.231,17.313 47.421,17.313 47.624,17.313 47.828,17.313 48.038,17.313 
		48.261,17.319 48.484,17.319 48.484,17.319 48.484,17.241 	"/>
	<polygon fill="#FFFFFF" points="50.735,19.47 50.735,19.47 50.768,19.201 50.768,18.951 50.722,18.721 50.65,18.504 50.545,18.3 
		50.413,18.116 50.256,17.951 50.092,17.806 49.902,17.681 49.705,17.563 49.495,17.471 49.291,17.392 49.075,17.333 48.871,17.287 
		48.668,17.254 48.484,17.241 48.484,17.319 48.668,17.333 48.858,17.366 49.062,17.412 49.265,17.471 49.469,17.55 49.665,17.642 
		49.862,17.747 50.039,17.872 50.203,18.017 50.348,18.168 50.479,18.339 50.571,18.53 50.643,18.734 50.689,18.951 50.689,19.201 
		50.656,19.457 50.656,19.457 50.735,19.47 	"/>
	<polygon fill="#FFFFFF" points="50.046,22.944 50.046,22.944 50.735,19.47 50.656,19.457 49.967,22.93 49.967,22.93 50.046,22.944 
			"/>
	<polygon fill="#FCB42F" points="48.419,21.22 48.406,21.181 48.379,21.148 48.333,21.128 48.268,21.108 48.196,21.102 
		48.111,21.095 48.012,21.095 47.914,21.102 47.809,21.115 47.703,21.128 47.598,21.141 47.5,21.154 47.401,21.174 47.316,21.187 
		47.231,21.207 47.165,21.22 47.119,21.227 47.067,21.246 47.002,21.266 46.929,21.293 46.844,21.332 46.765,21.371 46.673,21.417 
		46.588,21.477 46.503,21.536 46.417,21.608 46.345,21.681 46.273,21.766 46.214,21.858 46.168,21.957 46.128,22.062 46.109,22.174 
		46.102,22.398 46.135,22.575 46.188,22.707 46.266,22.806 46.365,22.871 46.477,22.911 46.588,22.93 46.7,22.937 46.896,22.93 
		47.08,22.911 47.251,22.878 47.401,22.832 47.546,22.779 47.671,22.72 47.789,22.654 47.894,22.575 47.985,22.503 48.064,22.417 
		48.137,22.339 48.196,22.253 48.242,22.174 48.274,22.095 48.301,22.016 48.32,21.944 48.346,21.76 48.379,21.569 48.406,21.385 
		48.419,21.22 	"/>
	<polygon fill="#FFFFFF" points="61.936,23.496 61.949,23.345 62.001,23.167 62.093,23.009 62.205,22.871 62.342,22.759 
		62.5,22.681 62.671,22.628 62.854,22.608 63.038,22.628 63.209,22.681 63.366,22.759 63.504,22.871 63.615,23.009 63.708,23.167 
		63.76,23.345 63.773,23.496 63.576,23.496 63.57,23.378 63.53,23.233 63.465,23.102 63.379,22.99 63.274,22.898 63.15,22.832 
		63.005,22.786 62.854,22.773 62.703,22.786 62.559,22.832 62.435,22.898 62.33,22.99 62.244,23.102 62.178,23.233 62.139,23.378 
		62.126,23.496 61.936,23.496 	"/>
	<polygon fill="#FFFFFF" points="62.526,23.496 62.526,23.102 62.887,23.102 62.966,23.108 63.038,23.121 63.091,23.141 
		63.137,23.167 63.169,23.207 63.196,23.246 63.209,23.292 63.215,23.338 63.209,23.397 63.196,23.443 63.176,23.483 63.163,23.496 
		62.887,23.496 62.914,23.49 62.96,23.483 62.999,23.47 63.031,23.457 63.058,23.437 63.071,23.417 63.084,23.384 63.084,23.338 
		63.077,23.305 63.064,23.279 63.045,23.266 63.025,23.253 62.992,23.246 62.96,23.24 62.927,23.24 62.887,23.24 62.69,23.24 
		62.69,23.496 62.526,23.496 	"/>
	<polygon fill="#FFFFFF" points="61.936,23.496 61.929,23.536 61.949,23.726 62.001,23.904 62.093,24.062 62.205,24.194 
		62.342,24.305 62.5,24.391 62.671,24.443 62.854,24.463 63.038,24.443 63.209,24.391 63.366,24.305 63.504,24.194 63.615,24.062 
		63.708,23.904 63.76,23.726 63.78,23.536 63.773,23.496 63.576,23.496 63.583,23.536 63.57,23.693 63.53,23.838 63.465,23.963 
		63.379,24.075 63.274,24.167 63.15,24.24 63.005,24.285 62.854,24.299 62.703,24.285 62.559,24.24 62.435,24.167 62.33,24.075 
		62.244,23.963 62.178,23.838 62.139,23.693 62.126,23.536 62.126,23.496 61.936,23.496 	"/>
	<polygon fill="#FFFFFF" points="62.526,23.496 62.526,23.897 62.69,23.897 62.69,23.568 62.854,23.568 63.051,23.897 
		63.183,23.897 62.986,23.568 63.031,23.568 63.077,23.555 63.117,23.542 63.15,23.516 63.163,23.496 62.887,23.496 62.854,23.503 
		62.69,23.503 62.69,23.496 62.526,23.496 	"/>
	<path fill="none" stroke="#FFFFFF" stroke-width="0.216" stroke-miterlimit="2.6131" d="M61.929,23.536L61.929,23.536l0.02-0.191
		l0.052-0.178l0.092-0.158l0.112-0.138l0.138-0.112L62.5,22.68l0.171-0.053l0.184-0.02l0,0l0.184,0.02l0.171,0.053l0.157,0.079
		l0.138,0.112l0.112,0.138l0.092,0.158l0.052,0.178l0.02,0.191l0,0l-0.02,0.191l-0.052,0.178l-0.092,0.158l-0.112,0.132
		l-0.138,0.112l-0.157,0.086l-0.171,0.053l-0.184,0.02l0,0l-0.184-0.02L62.5,24.391l-0.157-0.086l-0.138-0.112l-0.112-0.132
		l-0.092-0.158l-0.052-0.178L61.929,23.536 M62.69,23.897h-0.164v-0.796h0.361l0,0l0.079,0.007l0.072,0.013l0.052,0.02l0.046,0.026
		l0.033,0.039l0.026,0.039l0.013,0.046l0.007,0.046l0,0l-0.007,0.059l-0.013,0.046l-0.02,0.039l-0.026,0.033l-0.033,0.026
		l-0.04,0.013l-0.046,0.013h-0.046l0.197,0.329h-0.131l-0.197-0.329H62.69L62.69,23.897 M62.854,23.503L62.854,23.503l0.059-0.013
		l0.046-0.007l0.039-0.013l0.033-0.013l0.026-0.02l0.013-0.02l0.013-0.033v-0.046l0,0l-0.007-0.033l-0.013-0.026l-0.02-0.013
		l-0.02-0.013l-0.033-0.007l-0.033-0.007h-0.033h-0.039h-0.197v0.263L62.854,23.503 M62.854,24.299L62.854,24.299l0.151-0.013
		l0.144-0.046l0.125-0.072l0.105-0.092l0.085-0.112l0.066-0.125l0.039-0.145l0.013-0.158l0,0l-0.013-0.158l-0.039-0.145
		l-0.066-0.132l-0.085-0.112l-0.105-0.092l-0.125-0.066l-0.144-0.046l-0.151-0.013l0,0l-0.151,0.013l-0.145,0.046l-0.125,0.066
		l-0.105,0.092l-0.085,0.112l-0.066,0.132l-0.039,0.145l-0.013,0.158l0,0l0.013,0.158l0.039,0.145l0.066,0.125l0.085,0.112
		l0.105,0.092l0.125,0.072l0.145,0.046L62.854,24.299"/>
	<polygon fill="#FFFFFF" points="50.499,24.397 52.349,24.397 52.349,24.397 53.012,20.655 53.038,20.51 53.077,20.365 
		53.117,20.22 53.17,20.076 53.235,19.931 53.314,19.793 53.399,19.661 53.504,19.536 53.622,19.424 53.753,19.319 53.904,19.221 
		54.075,19.142 54.265,19.076 54.475,19.023 54.705,18.984 54.961,18.971 55.053,18.971 55.105,18.971 55.125,18.971 55.125,18.971 
		55.42,17.28 55.236,17.293 55.059,17.313 54.895,17.346 54.737,17.392 54.593,17.444 54.455,17.51 54.324,17.583 54.2,17.662 
		54.082,17.754 53.97,17.846 53.865,17.951 53.76,18.056 53.661,18.168 53.563,18.293 53.465,18.411 53.373,18.543 53.57,17.352 
		51.726,17.352 50.499,24.397 50.499,24.397 	"/>
	<polyline fill="none" stroke="#FFFFFF" stroke-width="0.216" stroke-miterlimit="2.6131" points="50.499,24.397 52.349,24.397 
		52.349,24.397 53.012,20.655 53.012,20.655 53.038,20.51 53.077,20.365 53.117,20.22 53.17,20.076 53.235,19.931 53.314,19.793 
		53.399,19.661 53.504,19.536 53.622,19.424 53.753,19.319 53.904,19.221 54.075,19.142 54.265,19.076 54.475,19.023 54.705,18.984 
		54.961,18.971 54.961,18.971 55.053,18.971 55.105,18.971 55.125,18.971 55.125,18.971 55.42,17.28 55.42,17.28 55.236,17.293 
		55.059,17.313 54.895,17.346 54.737,17.392 54.593,17.444 54.455,17.51 54.324,17.583 54.2,17.662 54.082,17.754 53.97,17.846 
		53.865,17.951 53.76,18.056 53.661,18.168 53.563,18.293 53.465,18.411 53.373,18.543 53.57,17.352 51.726,17.352 50.499,24.397 
		50.499,24.397 	"/>
	<polygon fill="#FFFFFF" points="33.123,24.397 34.974,24.397 35.006,24.397 35.636,20.655 35.663,20.51 35.695,20.372 
		35.728,20.233 35.774,20.102 35.827,19.971 35.892,19.846 35.971,19.727 36.063,19.615 36.168,19.516 36.286,19.418 36.431,19.339 
		36.588,19.267 36.772,19.207 36.975,19.155 37.198,19.122 37.454,19.102 37.474,19.102 37.5,19.109 37.533,19.115 37.566,19.115 
		37.598,19.122 37.625,19.128 37.644,19.135 37.651,19.135 37.657,19.109 37.677,19.03 37.703,18.911 37.736,18.767 37.782,18.595 
		37.828,18.411 37.887,18.227 37.946,18.043 37.998,17.918 38.064,17.793 38.13,17.668 38.195,17.556 38.255,17.458 38.3,17.379 
		38.333,17.333 38.346,17.313 38.34,17.313 38.314,17.306 38.281,17.3 38.235,17.293 38.189,17.293 38.136,17.287 38.091,17.28 
		38.045,17.28 37.841,17.293 37.657,17.313 37.487,17.346 37.329,17.385 37.179,17.438 37.041,17.504 36.916,17.569 36.798,17.648 
		36.686,17.734 36.581,17.833 36.483,17.931 36.384,18.043 36.286,18.155 36.194,18.28 36.096,18.411 35.997,18.543 36.234,17.352 
		34.35,17.352 33.123,24.397 33.123,24.397 	"/>
	<polyline fill="none" stroke="#FFFFFF" stroke-width="0.216" stroke-miterlimit="2.6131" points="33.123,24.397 34.974,24.397 
		35.006,24.397 35.636,20.655 35.636,20.655 35.663,20.51 35.695,20.372 35.728,20.233 35.774,20.102 35.827,19.971 35.892,19.846 
		35.971,19.727 36.063,19.615 36.168,19.516 36.286,19.418 36.431,19.339 36.588,19.267 36.772,19.207 36.975,19.155 37.198,19.122 
		37.454,19.102 37.454,19.102 37.474,19.102 37.5,19.109 37.533,19.115 37.566,19.115 37.598,19.122 37.625,19.128 37.644,19.135 
		37.651,19.135 37.651,19.135 37.657,19.109 37.677,19.03 37.703,18.911 37.736,18.767 37.782,18.595 37.828,18.411 37.887,18.227 
		37.946,18.043 37.946,18.043 37.998,17.918 38.064,17.793 38.13,17.668 38.195,17.556 38.255,17.458 38.3,17.379 38.333,17.333 
		38.346,17.313 38.346,17.313 38.34,17.313 38.314,17.306 38.281,17.3 38.235,17.293 38.189,17.293 38.136,17.287 38.091,17.28 
		38.045,17.28 38.045,17.28 37.841,17.293 37.657,17.313 37.487,17.346 37.329,17.385 37.179,17.438 37.041,17.504 36.916,17.569 
		36.798,17.648 36.686,17.734 36.581,17.833 36.483,17.931 36.384,18.043 36.286,18.155 36.194,18.28 36.096,18.411 35.997,18.543 
		36.234,17.352 34.35,17.352 33.123,24.397 33.123,24.397 	"/>
	<polygon fill="#FCB42F" points="61.949,31.317 61.949,31.291 62.001,31.12 62.093,30.968 62.205,30.837 62.342,30.732 62.5,30.653 
		62.671,30.607 62.854,30.587 63.038,30.607 63.209,30.653 63.366,30.732 63.504,30.837 63.615,30.968 63.708,31.12 63.76,31.291 
		63.76,31.317 63.57,31.317 63.53,31.179 63.465,31.054 63.379,30.942 63.274,30.85 63.15,30.778 63.005,30.732 62.854,30.719 
		62.703,30.732 62.559,30.778 62.435,30.85 62.33,30.942 62.244,31.054 62.178,31.179 62.139,31.317 61.949,31.317 	"/>
	<polygon fill="#FCB42F" points="62.526,31.317 62.526,31.087 62.887,31.087 62.966,31.087 63.038,31.1 63.091,31.113 
		63.137,31.139 63.169,31.173 63.196,31.212 63.209,31.258 63.215,31.317 63.084,31.317 63.084,31.284 63.077,31.251 63.064,31.225 
		63.045,31.212 63.025,31.199 62.992,31.192 62.96,31.186 62.927,31.186 62.887,31.186 62.69,31.186 62.69,31.317 62.526,31.317 	
		"/>
	<polygon fill="#FCB42F" points="61.929,31.462 61.949,31.317 62.139,31.317 62.139,31.324 62.126,31.462 61.929,31.462 	"/>
	<polygon fill="#FCB42F" points="62.526,31.462 62.526,31.317 62.69,31.317 62.69,31.449 62.854,31.449 62.914,31.436 62.96,31.429 
		62.999,31.416 63.031,31.403 63.058,31.383 63.071,31.363 63.084,31.33 63.084,31.317 63.215,31.317 63.215,31.317 63.209,31.363 
		63.196,31.403 63.176,31.436 63.15,31.462 62.526,31.462 	"/>
	<polygon fill="#FCB42F" points="63.583,31.462 63.57,31.324 63.57,31.317 63.76,31.317 63.78,31.462 63.583,31.462 	"/>
	<polygon fill="#FCB42F" points="61.929,31.462 61.929,31.482 61.949,31.672 62.001,31.85 62.093,32.008 62.205,32.146 
		62.342,32.258 62.5,32.337 62.671,32.389 62.854,32.409 63.038,32.389 63.209,32.337 63.366,32.258 63.504,32.146 63.615,32.008 
		63.708,31.85 63.76,31.672 63.78,31.482 63.78,31.462 63.583,31.462 63.583,31.482 63.57,31.64 63.53,31.784 63.465,31.909 
		63.379,32.021 63.274,32.113 63.15,32.185 63.005,32.231 62.854,32.245 62.703,32.231 62.559,32.185 62.435,32.113 62.33,32.021 
		62.244,31.909 62.178,31.784 62.139,31.64 62.126,31.482 62.126,31.462 61.929,31.462 	"/>
	<polygon fill="#FCB42F" points="62.526,31.462 62.526,31.843 62.69,31.843 62.69,31.515 62.854,31.515 63.051,31.843 
		63.183,31.843 62.986,31.515 63.031,31.515 63.077,31.501 63.117,31.488 63.15,31.462 63.15,31.462 62.526,31.462 	"/>
</g>
</svg>
