<?xml version="1.0" encoding="utf-8"?>
<!-- Generator: Adobe Illustrator 20.1.0, SVG Export Plug-In . SVG Version: 6.00 Build 0)  -->
<svg version="1.1" id="Layer_1" xmlns="http://www.w3.org/2000/svg" xmlns:xlink="http://www.w3.org/1999/xlink" x="0px" y="0px"
	 width="76px" height="24px" viewBox="0 0 76 24" enable-background="new 0 0 76 24" xml:space="preserve">
<g>
	<g>
		<polygon fill="#0066B3" points="32.946,23.601 26.745,23.601 30.621,0.415 36.823,0.415 		"/>
		<path fill="#0066B3" d="M21.528,0.415l-5.912,15.947l-0.699-3.434l0.001,0.001L12.83,2.503c0,0-0.252-2.088-2.942-2.088H0.114
			L0,0.807c0,0,2.99,0.605,6.487,2.651l5.388,20.142h6.461l9.867-23.186H21.528z"/>
		<path fill="#0066B3" d="M70.306,23.601H76L71.035,0.415h-4.986c-2.302,0-2.863,1.728-2.863,1.728l-9.248,21.458h6.464l1.293-3.444
			h7.884L70.306,23.601z M63.482,15.399l3.259-8.677l1.833,8.677H63.482z"/>
		<path fill="#0066B3" d="M54.423,5.991l0.885-4.98c0,0-2.731-1.011-5.578-1.011c-3.078,0-10.386,1.31-10.386,7.676
			c0,5.991,8.577,6.065,8.577,9.21s-7.693,2.583-10.232,0.599l-0.923,5.205c0,0,2.769,1.31,7.001,1.31
			c4.231,0,10.616-2.134,10.616-7.938c0-6.028-8.655-6.59-8.655-9.21C45.73,4.231,51.769,4.567,54.423,5.991z"/>
	</g>
	<path fill="#FAA634" d="M14.917,12.929L12.83,2.503c0,0-0.252-2.088-2.942-2.088H0.114L0,0.807c0,0,4.698,0.948,9.205,4.498
		C13.512,8.699,14.917,12.929,14.917,12.929z"/>
</g>
</svg>
