<?xml version="1.0" encoding="utf-8"?>
<!-- Generator: Adobe Illustrator 20.1.0, SVG Export Plug-In . SVG Version: 6.00 Build 0)  -->
<svg version="1.1" id="Layer_1" xmlns="http://www.w3.org/2000/svg" xmlns:xlink="http://www.w3.org/1999/xlink" x="0px" y="0px"
	 width="76.963px" height="50.011px" viewBox="0 0 76.963 50.011" style="enable-background:new 0 0 76.963 50.011;"
	 xml:space="preserve">
<style type="text/css">
	.st0{clip-path:url(#SVGID_2_);fill:url(#SVGID_3_);}
	.st1{clip-path:url(#SVGID_5_);fill:url(#SVGID_6_);}
	.st2{clip-path:url(#SVGID_8_);fill:url(#SVGID_9_);}
	.st3{clip-path:url(#SVGID_11_);fill:url(#SVGID_12_);}
	.st4{clip-path:url(#SVGID_14_);fill:url(#SVGID_15_);}
	.st5{clip-path:url(#SVGID_17_);fill:url(#SVGID_18_);}
	.st6{fill:#818181;}
</style>
<g>
	<g>
		<defs>
			<path id="SVGID_1_" d="M56.983,7.216c2.504-0.694,5.01-1.389,7.515-2.083c2.505-0.693,5.01-1.388,7.517-2.083
				c1.502-0.417,2.735,1.801,2.735,4.928c0,2.839,0,5.683,0,8.522c0,2.839,0,5.683,0,8.525c0,3.126-1.232,5.341-2.735,4.925
				c-2.506-0.695-5.012-1.391-7.517-2.086c-2.505-0.695-5.01-1.391-7.515-2.086c-1.502-0.417-2.733-2.293-2.733-4.169
				c0-1.705,0-3.41,0-5.115c0-1.702,0-3.407,0-5.113C54.25,9.506,55.48,7.632,56.983,7.216"/>
		</defs>
		<clipPath id="SVGID_2_">
			<use xlink:href="#SVGID_1_"  style="overflow:visible;"/>
		</clipPath>
		
			<linearGradient id="SVGID_3_" gradientUnits="userSpaceOnUse" x1="-483.1528" y1="325.9931" x2="-482.6065" y2="325.9931" gradientTransform="matrix(-50.9238 0 0 32.2832 -24537.0332 -10507.5996)">
			<stop  offset="0" style="stop-color:#003D41"/>
			<stop  offset="1" style="stop-color:#8FC575"/>
		</linearGradient>
		<rect x="54.25" y="2.634" class="st0" width="20.5" height="27.732"/>
	</g>
</g>
<g>
	<g>
		<defs>
			<path id="SVGID_4_" d="M21.018,7.216c-2.505-0.694-5.01-1.389-7.515-2.083C10.997,4.44,8.492,3.745,5.985,3.05
				C4.483,2.634,3.25,4.852,3.25,7.978c0,2.839,0,5.683,0,8.522c0,2.839,0,5.683,0,8.525c0,3.126,1.232,5.341,2.735,4.925
				c2.507-0.695,5.012-1.391,7.518-2.086c2.504-0.695,5.009-1.391,7.515-2.086c1.502-0.417,2.732-2.293,2.732-4.169
				c0-1.705,0-3.41,0-5.115c0-1.702,0-3.407,0-5.113C23.75,9.506,22.52,7.632,21.018,7.216"/>
		</defs>
		<clipPath id="SVGID_5_">
			<use xlink:href="#SVGID_4_"  style="overflow:visible;"/>
		</clipPath>
		
			<linearGradient id="SVGID_6_" gradientUnits="userSpaceOnUse" x1="-468.1109" y1="284.3907" x2="-467.6673" y2="284.3907" gradientTransform="matrix(49.9204 0 0 -32.2832 23381.7617 9197.543)">
			<stop  offset="0" style="stop-color:#7ED688"/>
			<stop  offset="1" style="stop-color:#C2F8A8"/>
		</linearGradient>
		<rect x="3.25" y="2.634" class="st1" width="20.5" height="27.732"/>
	</g>
</g>
<g>
	<g>
		<defs>
			<path id="SVGID_7_" d="M44.149,7.216c1.283-0.694,2.566-1.389,3.85-2.083c1.283-0.693,2.566-1.388,3.85-2.083
				c0.769-0.417,1.401,1.801,1.401,4.928c0,2.839,0,5.683,0,8.522c0,2.839,0,5.683,0,8.525c0,3.126-0.631,5.341-1.401,4.925
				c-1.284-0.695-2.567-1.391-3.85-2.086c-1.283-0.695-2.566-1.391-3.85-2.086c-0.769-0.417-1.399-2.293-1.399-4.169
				c0-1.705,0-3.41,0-5.115c0-1.702,0-3.407,0-5.113C42.75,9.506,43.38,7.632,44.149,7.216"/>
		</defs>
		<clipPath id="SVGID_8_">
			<use xlink:href="#SVGID_7_"  style="overflow:visible;"/>
		</clipPath>
		
			<linearGradient id="SVGID_9_" gradientUnits="userSpaceOnUse" x1="-491.5557" y1="325.9931" x2="-490.8733" y2="325.9931" gradientTransform="matrix(-24.0253 0 0 32.2832 -11758.8115 -10507.5996)">
			<stop  offset="0" style="stop-color:#005741"/>
			<stop  offset="1" style="stop-color:#8FC575"/>
		</linearGradient>
		<rect x="42.75" y="2.634" class="st2" width="10.5" height="27.732"/>
	</g>
</g>
<g>
	<g>
		<defs>
			<path id="SVGID_10_" d="M33.85,7.216c-1.283-0.694-2.566-1.389-3.849-2.083c-1.283-0.693-2.566-1.388-3.85-2.083
				c-0.77-0.417-1.401,1.801-1.401,4.928c0,2.839,0,5.683,0,8.522c0,2.839,0,5.683,0,8.525c0,3.126,0.631,5.341,1.401,4.925
				c1.284-0.695,2.567-1.391,3.85-2.086c1.283-0.695,2.566-1.391,3.849-2.086c0.77-0.417,1.4-2.293,1.4-4.169
				c0-1.705,0-3.41,0-5.115c0-1.702,0-3.407,0-5.113C35.25,9.506,34.62,7.632,33.85,7.216"/>
		</defs>
		<clipPath id="SVGID_11_">
			<use xlink:href="#SVGID_10_"  style="overflow:visible;"/>
		</clipPath>
		
			<linearGradient id="SVGID_12_" gradientUnits="userSpaceOnUse" x1="-460.8102" y1="284.3907" x2="-460.3383" y2="284.3907" gradientTransform="matrix(25.3638 0 0 -32.2832 11717.7354 9197.543)">
			<stop  offset="0" style="stop-color:#65BD6F"/>
			<stop  offset="1" style="stop-color:#C2F8A8"/>
		</linearGradient>
		<rect x="24.75" y="2.634" class="st3" width="10.5" height="27.732"/>
	</g>
</g>
<g>
	<g>
		<defs>
			<path id="SVGID_13_" d="M39.766,7.216c0.244-0.694,0.489-1.389,0.733-2.083c0.245-0.693,0.489-1.388,0.733-2.083
				C41.379,2.634,41.5,4.852,41.5,7.978c0,2.839,0,5.683,0,8.522c0,2.839,0,5.683,0,8.525c0,3.126-0.121,5.341-0.267,4.925
				c-0.244-0.695-0.488-1.391-0.733-2.086c-0.244-0.695-0.489-1.391-0.733-2.086c-0.146-0.417-0.266-2.293-0.266-4.169
				c0-1.705,0-3.41,0-5.115c0-1.702,0-3.407,0-5.113C39.5,9.506,39.62,7.632,39.766,7.216"/>
		</defs>
		<clipPath id="SVGID_14_">
			<use xlink:href="#SVGID_13_"  style="overflow:visible;"/>
		</clipPath>
		
			<linearGradient id="SVGID_15_" gradientUnits="userSpaceOnUse" x1="-578.8609" y1="326.0013" x2="-577.7493" y2="326.0013" gradientTransform="matrix(-3.6737 0 0 32.2838 -2085.0613 -10508.0615)">
			<stop  offset="0" style="stop-color:#187041"/>
			<stop  offset="1" style="stop-color:#F5F8FF"/>
		</linearGradient>
		<rect x="39.5" y="2.634" class="st4" width="2" height="27.732"/>
	</g>
</g>
<g>
	<g>
		<defs>
			<path id="SVGID_16_" d="M38.233,7.216c-0.244-0.694-0.489-1.389-0.733-2.083c-0.244-0.693-0.489-1.388-0.733-2.083
				C36.62,2.634,36.5,4.852,36.5,7.978c0,2.839,0,5.683,0,8.522c0,2.839,0,5.683,0,8.525c0,3.126,0.12,5.341,0.266,4.925
				c0.245-0.695,0.489-1.391,0.733-2.086c0.244-0.695,0.489-1.391,0.733-2.086c0.147-0.417,0.267-2.293,0.267-4.169
				c0-1.705,0-3.41,0-5.115c0-1.702,0-3.407,0-5.113C38.5,9.506,38.38,7.632,38.233,7.216"/>
		</defs>
		<clipPath id="SVGID_17_">
			<use xlink:href="#SVGID_16_"  style="overflow:visible;"/>
		</clipPath>
		
			<linearGradient id="SVGID_18_" gradientUnits="userSpaceOnUse" x1="-406.8924" y1="284.3907" x2="-405.7802" y2="284.3907" gradientTransform="matrix(5.472 0 0 -32.2832 2263.0122 9197.543)">
			<stop  offset="0" style="stop-color:#4BA354"/>
			<stop  offset="1" style="stop-color:#F6F6FB"/>
		</linearGradient>
		<rect x="36.5" y="2.634" class="st5" width="2" height="27.732"/>
	</g>
</g>
<path class="st6" d="M63.5,38.598c-0.138-0.022-0.3-0.04-0.482-0.055c-0.18-0.013-0.38-0.02-0.595-0.02
	c-0.673,0.002-1.299,0.06-1.873,0.168c-0.575,0.11-1.081,0.249-1.514,0.419v7.709h2.094v-6.474c0.133-0.053,0.293-0.093,0.477-0.123
	c0.185-0.028,0.375-0.043,0.57-0.043c0.172,0,0.336,0.01,0.498,0.032c0.161,0.02,0.308,0.05,0.442,0.088L63.5,38.598z"/>
<path class="st6" d="M57.977,40.702c-0.157-0.452-0.385-0.838-0.691-1.165c-0.303-0.324-0.677-0.575-1.119-0.748
	c-0.444-0.176-0.952-0.264-1.526-0.266c-0.605,0.002-1.147,0.105-1.622,0.311c-0.475,0.205-0.878,0.497-1.209,0.873
	c-0.331,0.376-0.585,0.82-0.757,1.337c-0.175,0.515-0.259,1.084-0.262,1.709c0,0.628,0.09,1.2,0.27,1.719
	c0.18,0.517,0.444,0.963,0.798,1.34c0.352,0.379,0.788,0.67,1.309,0.876c0.524,0.203,1.127,0.309,1.812,0.311
	c0.403,0,0.796-0.025,1.175-0.075c0.38-0.05,0.731-0.118,1.055-0.205c0.321-0.088,0.6-0.191,0.834-0.306l-0.6-1.536
	c-0.198,0.1-0.421,0.191-0.675,0.266c-0.251,0.078-0.516,0.138-0.796,0.181c-0.28,0.042-0.559,0.065-0.839,0.065
	c-0.408,0-0.772-0.065-1.093-0.196c-0.324-0.131-0.588-0.329-0.796-0.593c-0.205-0.264-0.341-0.592-0.405-0.989l5.343-0.708
	c0.015-0.12,0.031-0.579,0.031-0.692C58.213,41.658,58.133,41.153,57.977,40.702z M52.7,42.317c0.013-0.507,0.1-0.931,0.262-1.272
	c0.162-0.343,0.382-0.6,0.662-0.773c0.28-0.173,0.603-0.259,0.97-0.259c0.326,0,0.605,0.068,0.842,0.206
	c0.239,0.136,0.421,0.341,0.549,0.612c0.128,0.273,0.195,0.612,0.195,1.019L52.7,42.317z"/>
<rect x="47.844" y="35" class="st6" width="2.094" height="11.819"/>
<rect x="44.45" y="35" class="st6" width="2.094" height="11.819"/>
<path class="st6" d="M43.361,40.702c-0.156-0.452-0.385-0.838-0.69-1.165c-0.303-0.324-0.677-0.575-1.119-0.748
	c-0.444-0.176-0.952-0.264-1.527-0.266c-0.606,0.002-1.147,0.105-1.622,0.311c-0.475,0.205-0.878,0.497-1.209,0.873
	c-0.331,0.376-0.585,0.82-0.757,1.337c-0.174,0.515-0.259,1.084-0.261,1.709c0,0.628,0.09,1.2,0.269,1.719
	c0.18,0.517,0.444,0.963,0.798,1.34c0.352,0.379,0.788,0.67,1.309,0.876c0.523,0.203,1.127,0.309,1.812,0.311
	c0.403,0,0.796-0.025,1.175-0.075c0.38-0.05,0.731-0.118,1.055-0.205c0.321-0.088,0.6-0.191,0.834-0.306l-0.6-1.536
	c-0.198,0.1-0.421,0.191-0.675,0.266c-0.251,0.078-0.516,0.138-0.795,0.181c-0.28,0.042-0.56,0.065-0.839,0.065
	c-0.408,0-0.773-0.065-1.093-0.196c-0.324-0.131-0.588-0.329-0.796-0.593c-0.206-0.264-0.342-0.592-0.406-0.989l5.343-0.708
	c0.015-0.12,0.031-0.579,0.031-0.692C43.597,41.658,43.518,41.153,43.361,40.702z M38.085,42.317c0.013-0.507,0.1-0.931,0.262-1.272
	c0.162-0.343,0.382-0.6,0.662-0.773c0.28-0.173,0.604-0.259,0.97-0.259c0.326,0,0.606,0.068,0.842,0.206
	c0.238,0.136,0.421,0.341,0.549,0.612c0.128,0.273,0.195,0.612,0.195,1.019L38.085,42.317z"/>
<path class="st6" d="M35.892,46.714v-1.701c-0.072,0.03-0.162,0.058-0.272,0.083c-0.108,0.022-0.218,0.035-0.328,0.038
	c-0.182,0-0.344-0.028-0.488-0.083c-0.143-0.058-0.257-0.151-0.339-0.281c-0.084-0.131-0.125-0.306-0.128-0.524v-4.005h1.555v-1.535
	h-1.555V36.31l-2.063,0.587v1.807h-1.063v1.536h1.063v4.141c-0.003,0.851,0.19,1.491,0.577,1.917
	c0.388,0.429,0.98,0.643,1.779,0.643c0.172,0,0.336-0.013,0.498-0.033c0.162-0.02,0.308-0.047,0.442-0.08
	C35.699,46.792,35.807,46.754,35.892,46.714z"/>
<rect x="28.48" y="38.704" class="st6" width="2.094" height="8.115"/>
<path class="st6" d="M30.896,36.567c-0.002-0.208-0.057-0.394-0.165-0.56c-0.107-0.166-0.251-0.296-0.431-0.392
	c-0.18-0.098-0.382-0.145-0.606-0.148c-0.223,0.002-0.426,0.05-0.605,0.148c-0.18,0.096-0.323,0.226-0.431,0.392
	c-0.108,0.166-0.161,0.351-0.164,0.56c0.003,0.208,0.056,0.396,0.164,0.562c0.108,0.168,0.252,0.301,0.431,0.399
	c0.18,0.1,0.382,0.151,0.605,0.153c0.223-0.002,0.426-0.053,0.606-0.153c0.18-0.098,0.323-0.231,0.431-0.399
	C30.84,36.964,30.894,36.775,30.896,36.567z"/>
<path class="st6" d="M27.334,46.819v-5.556c0-0.585-0.129-1.079-0.388-1.488c-0.259-0.406-0.654-0.718-1.186-0.931
	c-0.534-0.214-1.209-0.319-2.03-0.321c-0.682,0.002-1.296,0.058-1.84,0.163c-0.544,0.108-1.034,0.248-1.47,0.424v7.709h2.094V40.36
	c0.141-0.055,0.323-0.1,0.544-0.138c0.218-0.038,0.454-0.058,0.704-0.058c0.48,0.002,0.841,0.12,1.09,0.349
	c0.246,0.231,0.372,0.549,0.372,0.961v5.345L27.334,46.819L27.334,46.819z"/>
<path class="st6" d="M19.306,46.413v-7.709h-2.094v6.429c-0.118,0.047-0.282,0.088-0.493,0.125c-0.21,0.035-0.452,0.053-0.724,0.055
	c-0.462,0.002-0.811-0.103-1.047-0.311c-0.236-0.211-0.354-0.532-0.354-0.968v-5.33H12.5v5.285c0,0.7,0.134,1.272,0.398,1.716
	c0.262,0.444,0.654,0.773,1.173,0.984c0.518,0.208,1.16,0.314,1.925,0.311c0.434,0,0.859-0.025,1.273-0.075
	c0.413-0.05,0.795-0.118,1.145-0.205C18.764,46.631,19.062,46.528,19.306,46.413z"/>
</svg>
