<?xml version="1.0" encoding="utf-8"?>
<!-- Generator: Adobe Illustrator 15.0.0, SVG Export Plug-In . SVG Version: 6.00 Build 0)  -->
<!DOCTYPE svg PUBLIC "-//W3C//DTD SVG 1.1//EN" "http://www.w3.org/Graphics/SVG/1.1/DTD/svg11.dtd">
<svg version="1.1" id="Layer_1" xmlns="http://www.w3.org/2000/svg" xmlns:xlink="http://www.w3.org/1999/xlink" x="0px" y="0px"
	 width="195px" height="59px" viewBox="0 0 195 59" enable-background="new 0 0 195 59" xml:space="preserve">
<g>
	<rect fill="#231F20" width="76.011" height="59"/>
	<rect x="1.464" y="1.363" fill="#C93178" width="15" height="26.728"/>
	<polygon fill="#C93178" points="18.76,42.86 38.391,16.024 57.069,42.884 	"/>
	<rect x="59.689" y="31.239" fill="#C93178" width="14.905" height="25.998"/>
	<rect x="1.546" y="44.561" fill="#7C337C" width="35.167" height="12.695"/>
	<rect x="1.517" y="29.663" fill="#9E7FA5" width="14.935" height="13.221"/>
	<rect x="38.59" y="44.535" fill="#FCE82B" width="19.38" height="12.702"/>
	<polygon fill="#00A3DE" points="17.998,15.498 17.998,40.89 36.574,15.542 	"/>
	<polygon fill="#00A3DE" points="39.964,15.498 58.013,15.498 58.013,41.208 	"/>
	<rect x="59.666" y="15.498" fill="#9E7FA5" width="14.864" height="13.955"/>
	<rect x="38.94" y="1.399" fill="#7C337C" width="35.595" height="12.7"/>
	<rect x="18.041" y="1.373" fill="#FCE82B" width="19.417" height="12.746"/>
</g>
<g>
	<path fill="#FFFFFF" d="M99.031,18.895l-1.979,22.287h-5.55l-2.108-22.287h3.781l1.188,16.301c0.066-1.221,0.226-4.148,0.478-8.785
		c0.141-2.586,0.277-5.092,0.409-7.516H99.031z"/>
	<path fill="#FFFFFF" d="M104.043,13.99v3.527h-4.389V13.99H104.043z M104.043,18.895v22.287h-4.389V18.895H104.043z"/>
	<path fill="#FFFFFF" d="M114.195,25.994h-3.785v-1.209c0-1.027-0.037-1.678-0.111-1.951s-0.257-0.412-0.551-0.412
		c-0.238,0-0.418,0.127-0.537,0.379s-0.178,0.629-0.178,1.133c0,0.684,0.029,1.186,0.09,1.504c0.06,0.318,0.24,0.67,0.539,1.049
		c0.301,0.381,0.917,0.936,1.849,1.664c1.242,0.963,2.059,1.869,2.447,2.721c0.388,0.85,0.582,2.088,0.582,3.711
		c0,1.814-0.147,3.184-0.442,4.107s-0.787,1.635-1.479,2.133c-0.691,0.496-1.523,0.746-2.498,0.746c-1.082,0-2.006-0.27-2.773-0.805
		c-0.768-0.537-1.296-1.264-1.584-2.18c-0.287-0.918-0.432-2.303-0.432-4.16v-1.072h3.787v1.402c0,1.191,0.047,1.965,0.141,2.322
		c0.094,0.355,0.281,0.533,0.56,0.533c0.3,0,0.509-0.119,0.627-0.359c0.118-0.242,0.179-0.748,0.179-1.521
		c0-1.063-0.078-1.729-0.232-1.998c-0.162-0.27-0.99-1.063-2.484-2.385c-1.254-1.119-2.019-2.135-2.293-3.049
		c-0.274-0.912-0.412-1.994-0.412-3.25c0-1.779,0.147-3.092,0.441-3.938c0.295-0.846,0.795-1.496,1.499-1.957
		c0.704-0.459,1.523-0.688,2.456-0.688c0.925,0,1.712,0.188,2.361,0.563c0.648,0.375,1.146,0.871,1.493,1.486
		c0.347,0.617,0.557,1.189,0.631,1.715c0.073,0.527,0.11,1.352,0.11,2.471V25.994z"/>
	<path fill="#FFFFFF" d="M119.46,27.5h-4.001v-1.494c0-1.725,0.124-3.055,0.373-3.99c0.249-0.934,0.75-1.76,1.501-2.477
		s1.728-1.074,2.929-1.074c1.438,0,2.523,0.406,3.254,1.219c0.729,0.813,1.168,1.811,1.316,2.992
		c0.147,1.184,0.221,3.619,0.221,7.307v11.199h-4.13v-2.008c-0.261,0.799-0.597,1.396-1.008,1.795c-0.411,0.4-0.901,0.6-1.471,0.6
		c-0.747,0-1.431-0.334-2.053-1s-0.933-2.125-0.933-4.379v-1.832c0-1.67,0.164-2.807,0.494-3.412
		c0.329-0.605,1.146-1.311,2.452-2.119c1.396-0.873,2.144-1.461,2.241-1.764s0.147-0.918,0.147-1.844c0-1.16-0.054-1.916-0.161-2.27
		c-0.107-0.352-0.287-0.527-0.537-0.527c-0.285,0-0.463,0.148-0.531,0.445c-0.07,0.295-0.104,1.064-0.104,2.303V27.5z
		 M120.794,30.559c-0.674,0.795-1.065,1.461-1.173,1.998s-0.161,1.311-0.161,2.316c0,1.154,0.046,1.898,0.141,2.234
		c0.094,0.336,0.279,0.502,0.558,0.502c0.264,0,0.436-0.131,0.516-0.395c0.08-0.262,0.12-0.953,0.12-2.072V30.559z"/>
	<path fill="#FFFFFF" d="M131.678,27.672v4.689h-5.551v-4.689H131.678z"/>
	<path fill="#FFFFFF" d="M142.486,13.99v27.191h-4.26v-1.637c-0.405,0.676-0.83,1.182-1.275,1.518
		c-0.445,0.338-0.912,0.506-1.4,0.506c-0.655,0-1.223-0.277-1.703-0.832c-0.481-0.553-0.789-1.195-0.925-1.924
		s-0.204-1.914-0.204-3.563V24.816c0-1.715,0.068-2.93,0.204-3.646s0.446-1.348,0.935-1.891s1.069-0.814,1.746-0.814
		c0.521,0,1,0.152,1.436,0.457s0.832,0.762,1.188,1.373V13.99H142.486z M138.227,24.486c0-0.816-0.043-1.365-0.127-1.645
		c-0.086-0.279-0.252-0.42-0.503-0.42c-0.243,0-0.407,0.127-0.491,0.379c-0.086,0.25-0.127,0.814-0.127,1.686v10.908
		c0,0.906,0.04,1.504,0.121,1.789s0.237,0.426,0.467,0.426c0.264,0,0.439-0.158,0.527-0.477s0.133-1.1,0.133-2.342V24.486z"/>
	<path fill="#FFFFFF" d="M153.619,30.426h-5.465v4.807c0,1.004,0.047,1.652,0.137,1.941c0.09,0.291,0.264,0.436,0.521,0.436
		c0.32,0,0.535-0.191,0.645-0.574c0.107-0.383,0.16-1.127,0.16-2.227v-2.92h4.002v1.641c0,1.373-0.055,2.428-0.162,3.166
		c-0.109,0.736-0.363,1.523-0.76,2.361c-0.4,0.838-0.904,1.465-1.518,1.885c-0.611,0.418-1.379,0.627-2.301,0.627
		c-0.896,0-1.686-0.207-2.371-0.621s-1.219-0.982-1.602-1.705c-0.381-0.723-0.645-1.518-0.791-2.387
		c-0.146-0.867-0.221-2.131-0.221-3.789v-6.502c0-1.951,0.164-3.488,0.494-4.613c0.328-1.127,0.867-1.988,1.615-2.588
		s1.609-0.898,2.58-0.898c1.189,0,2.17,0.361,2.943,1.084c0.771,0.725,1.314,1.684,1.625,2.877c0.311,1.195,0.467,2.873,0.467,5.039
		V30.426z M149.359,26.811v-1.637c0-1.158-0.037-1.908-0.111-2.246c-0.076-0.336-0.229-0.506-0.459-0.506
		c-0.287,0-0.463,0.145-0.531,0.432s-0.104,1.061-0.104,2.32v1.637H149.359z"/>
	<path fill="#FFFFFF" d="M159.41,13.99v27.191h-4.387V13.99H159.41z"/>
	<path fill="#FFFFFF" d="M165.305,13.99v3.527h-4.389V13.99H165.305z M165.305,18.895v22.287h-4.389V18.895H165.305z"/>
	<path fill="#FFFFFF" d="M176.402,18.895v17.154c0,2.316-0.033,3.813-0.1,4.488c-0.066,0.678-0.301,1.393-0.705,2.148
		s-0.967,1.332-1.689,1.729c-0.721,0.398-1.629,0.596-2.723,0.596c-1.346,0-2.426-0.365-3.24-1.098
		c-0.816-0.734-1.238-2.174-1.266-4.322h4.131c0,0.975,0.215,1.463,0.648,1.463c0.311,0,0.516-0.15,0.617-0.451
		s0.154-0.932,0.154-1.891v-1.672c-0.363,0.529-0.744,0.928-1.145,1.199c-0.398,0.27-0.818,0.404-1.256,0.404
		c-0.758,0-1.383-0.246-1.873-0.738c-0.49-0.494-0.826-1.143-1.006-1.943c-0.182-0.801-0.271-1.941-0.271-3.422v-8.105
		c0-2.119,0.236-3.643,0.707-4.574c0.473-0.93,1.189-1.395,2.154-1.395c0.527,0,1.008,0.176,1.441,0.527
		c0.434,0.354,0.82,0.881,1.16,1.584l0.303-1.682H176.402z M172.143,24.795c0-1.021-0.033-1.672-0.104-1.951
		c-0.07-0.281-0.225-0.422-0.463-0.422c-0.232,0-0.396,0.16-0.494,0.48c-0.096,0.32-0.143,0.949-0.143,1.893v7.502
		c0,0.998,0.035,1.645,0.109,1.941c0.072,0.297,0.225,0.447,0.457,0.447c0.266,0,0.439-0.18,0.518-0.539
		c0.08-0.359,0.119-1.172,0.119-2.439V24.795z"/>
	<path fill="#FFFFFF" d="M182.223,13.99v6.102c0.363-0.543,0.756-0.949,1.178-1.221s0.875-0.406,1.357-0.406
		c0.738,0,1.369,0.303,1.889,0.908c0.521,0.604,0.838,1.303,0.955,2.092c0.113,0.791,0.172,2.234,0.172,4.33v15.387h-4.26V25.482
		c0-1.301-0.039-2.135-0.117-2.506c-0.078-0.369-0.256-0.555-0.527-0.555c-0.254,0-0.424,0.191-0.514,0.572
		c-0.088,0.381-0.133,1.137-0.133,2.27v15.918h-4.26V13.99H182.223z"/>
	<path fill="#FFFFFF" d="M193.666,15.883v3.527h1.162v3.529h-1.162v11.959c0,1.471,0.047,2.291,0.143,2.459s0.492,0.252,1.191,0.252
		v3.572h-1.717c-0.969,0-1.66-0.064-2.076-0.193c-0.414-0.129-0.777-0.426-1.094-0.891c-0.316-0.467-0.514-0.998-0.59-1.598
		c-0.078-0.6-0.117-2.01-0.117-4.229V22.939h-0.902V19.41h0.902v-3.527H193.666z"/>
</g>
</svg>
