<?xml version="1.0" encoding="utf-8"?>
<!-- Generator: Adobe Illustrator 15.0.0, SVG Export Plug-In . SVG Version: 6.00 Build 0)  -->
<!DOCTYPE svg PUBLIC "-//W3C//DTD SVG 1.1//EN" "http://www.w3.org/Graphics/SVG/1.1/DTD/svg11.dtd">
<svg version="1.1" id="Layer_1" xmlns="http://www.w3.org/2000/svg" xmlns:xlink="http://www.w3.org/1999/xlink" x="0px" y="0px"
	 width="106px" height="119px" viewBox="0 0 106 119" enable-background="new 0 0 106 119" xml:space="preserve">
<g>
	<g>
		<rect fill="#231F20" width="105.904" height="82.203"/>
		<rect x="2.041" y="1.899" fill="#C93178" width="20.899" height="37.239"/>
		<polygon fill="#C93178" points="26.138,59.716 53.489,22.326 79.514,59.748 		"/>
		<rect x="83.164" y="43.526" fill="#C93178" width="20.766" height="36.222"/>
		<rect x="2.154" y="62.086" fill="#7C337C" width="48.997" height="17.688"/>
		<rect x="2.114" y="41.329" fill="#9E7FA5" width="20.808" height="18.419"/>
		<rect x="53.766" y="62.051" fill="#FCE82B" width="27.001" height="17.697"/>
		<polygon fill="#00A3DE" points="25.076,21.593 25.076,56.971 50.958,21.654 		"/>
		<polygon fill="#00A3DE" points="55.682,21.593 80.828,21.593 80.828,57.413 		"/>
		<rect x="83.131" y="21.593" fill="#9E7FA5" width="20.711" height="19.443"/>
		<rect x="54.254" y="1.949" fill="#7C337C" width="49.594" height="17.694"/>
		<rect x="25.136" y="1.912" fill="#FCE82B" width="27.053" height="17.759"/>
	</g>
	<g>
		<path fill="#231F20" d="M10.031,92.885l-1.979,22.287h-5.55L0.393,92.885h3.781l1.188,16.301c0.066-1.221,0.226-4.148,0.478-8.785
			c0.141-2.586,0.277-5.092,0.409-7.516H10.031z"/>
		<path fill="#231F20" d="M15.043,87.98v3.527h-4.389V87.98H15.043z M15.043,92.885v22.287h-4.389V92.885H15.043z"/>
		<path fill="#231F20" d="M25.196,99.984H21.41v-1.209c0-1.027-0.037-1.678-0.11-1.951c-0.074-0.273-0.257-0.412-0.552-0.412
			c-0.238,0-0.417,0.127-0.536,0.379c-0.12,0.252-0.179,0.629-0.179,1.133c0,0.684,0.03,1.186,0.09,1.504
			c0.06,0.318,0.24,0.67,0.54,1.049c0.3,0.381,0.917,0.936,1.848,1.664c1.242,0.963,2.059,1.869,2.447,2.721
			c0.388,0.85,0.582,2.088,0.582,3.711c0,1.814-0.148,3.184-0.442,4.107s-0.787,1.635-1.479,2.133
			c-0.691,0.496-1.524,0.746-2.499,0.746c-1.081,0-2.005-0.27-2.773-0.805c-0.768-0.537-1.295-1.264-1.583-2.18
			c-0.288-0.918-0.432-2.303-0.432-4.16v-1.072h3.786v1.402c0,1.191,0.047,1.965,0.141,2.322c0.094,0.355,0.281,0.533,0.56,0.533
			c0.3,0,0.509-0.119,0.627-0.359c0.119-0.242,0.178-0.748,0.178-1.521c0-1.063-0.078-1.729-0.232-1.998
			c-0.162-0.27-0.99-1.063-2.483-2.385c-1.254-1.119-2.019-2.135-2.293-3.049c-0.275-0.912-0.412-1.994-0.412-3.25
			c0-1.779,0.147-3.092,0.441-3.938s0.794-1.496,1.499-1.957c0.705-0.459,1.523-0.688,2.456-0.688c0.925,0,1.712,0.188,2.361,0.563
			s1.147,0.871,1.494,1.486c0.347,0.617,0.557,1.189,0.631,1.715c0.074,0.527,0.111,1.352,0.111,2.471V99.984z"/>
		<path fill="#231F20" d="M30.46,101.49h-4.001v-1.494c0-1.725,0.125-3.055,0.374-3.99c0.249-0.934,0.749-1.76,1.5-2.477
			s1.728-1.074,2.928-1.074c1.438,0,2.524,0.406,3.254,1.219s1.169,1.811,1.317,2.992c0.147,1.184,0.221,3.619,0.221,7.307v11.199
			h-4.13v-2.008c-0.261,0.799-0.596,1.396-1.008,1.795c-0.412,0.4-0.901,0.6-1.471,0.6c-0.747,0-1.43-0.334-2.053-1
			s-0.933-2.125-0.933-4.379v-1.832c0-1.67,0.165-2.807,0.494-3.412c0.33-0.605,1.147-1.311,2.453-2.119
			c1.396-0.873,2.143-1.461,2.241-1.764s0.147-0.918,0.147-1.844c0-1.16-0.054-1.916-0.162-2.27
			c-0.107-0.352-0.286-0.527-0.537-0.527c-0.285,0-0.462,0.148-0.532,0.445c-0.07,0.295-0.104,1.064-0.104,2.303V101.49z
			 M31.794,104.549c-0.674,0.795-1.065,1.461-1.173,1.998c-0.107,0.537-0.161,1.311-0.161,2.316c0,1.154,0.046,1.898,0.141,2.234
			c0.094,0.336,0.279,0.502,0.558,0.502c0.264,0,0.436-0.131,0.516-0.395c0.08-0.262,0.12-0.953,0.12-2.072V104.549z"/>
		<path fill="#231F20" d="M42.677,101.662v4.689h-5.55v-4.689H42.677z"/>
		<path fill="#231F20" d="M53.486,87.98v27.191h-4.26v-1.637c-0.405,0.676-0.83,1.182-1.275,1.518
			c-0.445,0.338-0.912,0.506-1.399,0.506c-0.656,0-1.224-0.277-1.704-0.832c-0.481-0.553-0.789-1.195-0.924-1.924
			c-0.136-0.729-0.204-1.914-0.204-3.563V98.807c0-1.715,0.068-2.93,0.204-3.646c0.136-0.717,0.447-1.348,0.935-1.891
			c0.487-0.543,1.069-0.814,1.745-0.814c0.522,0,1.001,0.152,1.437,0.457s0.831,0.762,1.187,1.373V87.98H53.486z M49.226,98.477
			c0-0.816-0.042-1.365-0.127-1.645c-0.085-0.279-0.252-0.42-0.502-0.42c-0.243,0-0.407,0.127-0.492,0.379
			c-0.085,0.25-0.126,0.814-0.126,1.686v10.908c0,0.906,0.04,1.504,0.122,1.789c0.081,0.285,0.237,0.426,0.466,0.426
			c0.264,0,0.44-0.158,0.528-0.477c0.087-0.318,0.132-1.1,0.132-2.342V98.477z"/>
		<path fill="#231F20" d="M64.619,104.416h-5.465v4.807c0,1.004,0.047,1.652,0.137,1.941c0.09,0.291,0.264,0.436,0.521,0.436
			c0.32,0,0.535-0.191,0.645-0.574c0.107-0.383,0.16-1.127,0.16-2.227v-2.92h4.002v1.641c0,1.373-0.055,2.428-0.162,3.166
			c-0.109,0.736-0.363,1.523-0.76,2.361c-0.4,0.838-0.904,1.465-1.518,1.885c-0.611,0.418-1.379,0.627-2.301,0.627
			c-0.896,0-1.686-0.207-2.371-0.621s-1.219-0.982-1.602-1.705c-0.381-0.723-0.645-1.518-0.791-2.387
			c-0.146-0.867-0.221-2.131-0.221-3.789v-6.502c0-1.951,0.164-3.488,0.494-4.613c0.328-1.127,0.867-1.988,1.615-2.588
			s1.609-0.898,2.58-0.898c1.189,0,2.17,0.361,2.943,1.084c0.771,0.725,1.314,1.684,1.625,2.877
			c0.311,1.195,0.467,2.873,0.467,5.039V104.416z M60.359,100.801v-1.637c0-1.158-0.037-1.908-0.111-2.246
			c-0.076-0.336-0.229-0.506-0.459-0.506c-0.287,0-0.463,0.145-0.531,0.432s-0.104,1.061-0.104,2.32v1.637H60.359z"/>
		<path fill="#231F20" d="M70.41,87.98v27.191h-4.387V87.98H70.41z"/>
		<path fill="#231F20" d="M76.305,87.98v3.527h-4.389V87.98H76.305z M76.305,92.885v22.287h-4.389V92.885H76.305z"/>
		<path fill="#231F20" d="M87.402,92.885v17.154c0,2.316-0.033,3.813-0.1,4.488c-0.066,0.678-0.301,1.393-0.705,2.148
			s-0.967,1.332-1.689,1.729c-0.721,0.398-1.629,0.596-2.723,0.596c-1.346,0-2.426-0.365-3.24-1.098
			c-0.816-0.734-1.238-2.174-1.266-4.322h4.131c0,0.975,0.215,1.463,0.648,1.463c0.311,0,0.516-0.15,0.617-0.451
			s0.154-0.932,0.154-1.891v-1.672c-0.363,0.529-0.744,0.928-1.145,1.199c-0.398,0.27-0.818,0.404-1.256,0.404
			c-0.758,0-1.383-0.246-1.873-0.738c-0.49-0.494-0.826-1.143-1.006-1.943c-0.182-0.801-0.271-1.941-0.271-3.422v-8.105
			c0-2.119,0.236-3.643,0.707-4.574c0.473-0.93,1.189-1.395,2.154-1.395c0.527,0,1.008,0.176,1.441,0.527
			c0.434,0.354,0.82,0.881,1.16,1.584l0.303-1.682H87.402z M83.143,98.785c0-1.021-0.033-1.672-0.104-1.951
			c-0.07-0.281-0.225-0.422-0.463-0.422c-0.232,0-0.396,0.16-0.494,0.48c-0.096,0.32-0.143,0.949-0.143,1.893v7.502
			c0,0.998,0.035,1.645,0.109,1.941c0.072,0.297,0.225,0.447,0.457,0.447c0.266,0,0.439-0.18,0.518-0.539
			c0.08-0.359,0.119-1.172,0.119-2.439V98.785z"/>
		<path fill="#231F20" d="M93.223,87.98v6.102c0.363-0.543,0.756-0.949,1.178-1.221s0.875-0.406,1.357-0.406
			c0.738,0,1.369,0.303,1.889,0.908c0.521,0.604,0.838,1.303,0.955,2.092c0.113,0.791,0.172,2.234,0.172,4.33v15.387h-4.26V99.473
			c0-1.301-0.039-2.135-0.117-2.506c-0.078-0.369-0.256-0.555-0.527-0.555c-0.254,0-0.424,0.191-0.514,0.572
			c-0.088,0.381-0.133,1.137-0.133,2.27v15.918h-4.26V87.98H93.223z"/>
		<path fill="#231F20" d="M104.666,89.873V93.4h1.162v3.529h-1.162v11.959c0,1.471,0.047,2.291,0.143,2.459s0.492,0.252,1.191,0.252
			v3.572h-1.717c-0.969,0-1.66-0.064-2.076-0.193c-0.414-0.129-0.777-0.426-1.094-0.891c-0.316-0.467-0.514-0.998-0.59-1.598
			c-0.078-0.6-0.117-2.01-0.117-4.229V96.93h-0.902V93.4h0.902v-3.527H104.666z"/>
	</g>
</g>
</svg>
